<?xml version="1.0" standalone="no"?>
<!DOCTYPE svg PUBLIC "-//W3C//DTD SVG 20010904//EN"
 "http://www.w3.org/TR/2001/REC-SVG-20010904/DTD/svg10.dtd">
<svg version="1.0" xmlns="http://www.w3.org/2000/svg"
 width="1024.000000pt" height="576.000000pt" viewBox="0 0 1024.000000 576.000000"
 preserveAspectRatio="xMidYMid meet">

<g transform="translate(0.000000,576.000000) scale(0.100000,-0.100000)"
fill="#000000" stroke="none">
<path d="M8319 5612 c-181 -394 -381 -837 -666 -1477 -135 -302 -252 -563
-260 -578 -17 -35 -10 -66 11 -48 11 9 16 9 22 0 4 -8 3 -9 -4 -5 -7 4 -12 2
-12 -3 0 -6 5 -11 11 -11 5 0 7 -5 3 -12 -4 -6 -3 -8 3 -5 6 4 16 0 23 -8 11
-13 7 -15 -34 -14 -25 1 -46 6 -46 11 0 19 -16 6 -27 -21 -8 -23 -15 -29 -32
-24 -31 8 -72 -37 -78 -84 -2 -21 -11 -57 -19 -81 -8 -23 -14 -47 -14 -52 0
-17 -61 -110 -72 -110 -6 0 -30 -13 -55 -30 -24 -16 -48 -30 -52 -30 -17 0
-41 -38 -35 -55 6 -15 8 -15 20 6 7 13 13 20 14 15 0 -5 8 -2 18 5 9 7 6 1 -8
-14 l-24 -28 22 -6 c12 -3 22 -12 22 -20 0 -12 -3 -13 -15 -3 -8 6 -20 10 -27
7 -8 -4 -7 -6 4 -6 27 -1 10 -31 -18 -31 -12 0 -30 10 -38 22 -9 12 -18 19
-21 16 -8 -7 5 -38 16 -38 5 0 9 -7 9 -15 0 -8 -5 -15 -11 -15 -14 0 -2 -37
23 -73 11 -16 32 -62 47 -104 16 -47 35 -82 49 -91 21 -13 22 -13 22 8 0 20 4
22 31 16 17 -3 39 -6 47 -6 14 0 14 -1 0 -12 -20 -16 -33 -58 -18 -58 6 0 8
-5 4 -11 -10 -17 -6 -80 9 -123 l14 -38 7 28 c4 16 16 37 27 47 10 10 19 23
19 30 0 8 -3 8 -9 -2 -7 -11 -11 -9 -20 8 -10 18 -9 21 6 18 33 -5 43 -17 37
-44 -6 -20 -4 -24 7 -18 11 6 12 5 2 -6 -15 -16 -17 -59 -3 -59 6 0 10 8 10
18 0 10 6 19 13 20 6 0 24 3 40 5 21 3 27 0 27 -13 0 -10 18 -29 40 -44 40
-26 45 -45 12 -47 -9 0 -4 -5 12 -10 17 -4 32 -6 34 -4 5 5 -17 40 -46 73 -15
17 -19 30 -13 45 7 18 -1 28 -47 64 -31 24 -51 43 -46 43 5 0 -7 14 -26 30
-32 26 -33 29 -10 23 14 -3 35 -14 48 -24 13 -10 30 -15 39 -12 11 4 14 2 9
-5 -4 -7 18 -43 55 -87 34 -41 63 -75 66 -75 2 0 1 21 -2 48 -6 46 -5 48 35
80 22 18 40 31 40 29 0 -2 -13 -42 -29 -89 -18 -52 -26 -91 -20 -99 4 -8 3
-19 -4 -28 -10 -12 -9 -13 2 -7 31 19 -6 -24 -69 -80 -64 -56 -94 -96 -88
-115 4 -13 132 77 177 125 19 19 38 33 42 30 10 -6 44 43 64 94 10 23 21 42
25 42 4 0 10 10 13 23 3 12 17 52 31 88 13 37 28 94 32 128 l7 62 310 282
c171 155 370 336 441 401 72 65 211 191 309 279 123 111 177 166 177 181 0 32
-36 84 -72 106 -41 25 -59 25 -65 1 -3 -10 -55 -63 -116 -117 -96 -85 -225
-202 -417 -378 -25 -23 -108 -98 -185 -166 -77 -69 -204 -182 -282 -253 -78
-71 -147 -126 -153 -122 -5 3 -10 0 -10 -8 0 -8 -10 -22 -22 -33 -20 -18 -21
-18 -15 -1 4 10 7 24 7 30 0 7 5 6 11 -3 8 -11 9 -6 4 20 -5 26 -4 31 4 20 9
-12 11 -10 11 12 0 15 -4 30 -10 33 -5 3 -10 17 -10 29 0 13 -7 29 -15 36 -8
7 -15 19 -15 26 0 24 -32 94 -40 89 -4 -3 -10 2 -14 10 -3 8 -2 15 3 15 12 0
-17 120 -36 148 -8 13 -12 34 -9 46 5 20 152 352 461 1041 121 269 473 1051
499 1105 14 30 26 61 26 67 0 18 -42 43 -100 58 l-51 13 -30 -66z m-914 -2202
c19 -36 19 -46 2 -28 -22 21 -39 58 -28 58 6 0 17 -13 26 -30z m-95 -16 c0 -9
5 -12 12 -8 7 4 8 3 4 -5 -6 -9 -11 -9 -22 0 -16 13 -18 29 -4 29 6 0 10 -7
10 -16z m64 -49 c3 -8 1 -15 -4 -15 -6 0 -10 7 -10 15 0 8 2 15 4 15 2 0 6 -7
10 -15z m93 -7 c-3 -8 -6 -5 -6 6 -1 11 2 17 5 13 3 -3 4 -12 1 -19z m-132
-38 c-3 -5 -11 -10 -16 -10 -6 0 -7 5 -4 10 3 6 11 10 16 10 6 0 7 -4 4 -10z
m115 -26 c0 -8 -4 -12 -10 -9 -5 3 -10 13 -10 21 0 8 5 12 10 9 6 -3 10 -13
10 -21z m-146 0 c3 -8 2 -12 -4 -9 -6 3 -10 10 -10 16 0 14 7 11 14 -7z m-54
-19 c0 -8 -4 -15 -9 -15 -13 0 -22 16 -14 24 11 11 23 6 23 -9z m77 -7 c-3 -8
-6 -5 -6 6 -1 11 2 17 5 13 3 -3 4 -12 1 -19z m196 -15 c-3 -7 -9 -13 -14 -13
-5 0 -9 6 -9 13 0 8 6 14 14 14 8 0 12 -6 9 -14z m-248 -54 c-10 -15 -25 -10
-19 6 4 8 10 12 15 9 5 -3 7 -10 4 -15z m155 3 c-8 -3 -18 -10 -22 -16 -5 -8
-8 -7 -8 1 0 7 -7 10 -17 6 -10 -4 -14 -2 -10 4 3 5 21 10 39 10 18 1 26 -2
18 -5z m-130 -33 c0 -5 -4 -9 -8 -9 -5 0 -9 7 -9 15 0 8 4 12 9 9 4 -3 8 -9 8
-15z m166 -6 c-10 -10 -19 5 -10 18 6 11 8 11 12 0 2 -7 1 -15 -2 -18z m-76
-19 c0 -8 -5 -12 -10 -9 -6 4 -8 11 -5 16 9 14 15 11 15 -7z m150 2 c0 -8 -6
-16 -14 -19 -10 -4 -12 0 -9 14 6 22 23 26 23 5z m-180 -37 c0 -5 -6 -6 -14
-3 -16 6 -46 -21 -46 -42 0 -26 -15 -15 -17 12 0 15 -7 31 -15 36 -9 7 -7 8 7
4 11 -3 26 -2 34 3 15 10 51 3 51 -10z m217 -31 c-3 -8 -6 -5 -6 6 -1 11 2 17
5 13 3 -3 4 -12 1 -19z m-380 -18 c-7 -18 -14 -25 -18 -18 -8 13 7 48 20 48 5
0 4 -13 -2 -30z m227 8 c21 -29 20 -44 0 -27 -14 11 -18 10 -31 -6 -18 -25
-13 -65 9 -79 23 -14 41 3 41 40 l0 27 17 -23 c14 -19 16 -29 7 -49 -14 -33
-18 -37 -43 -45 -16 -5 -23 0 -34 29 -13 33 -24 39 -61 36 -8 -1 -24 8 -34 19
-19 21 -13 24 20 11 31 -13 53 5 60 49 8 45 26 52 49 18z m33 -10 c-3 -7 -5
-2 -5 12 0 14 2 19 5 13 2 -7 2 -19 0 -25z m31 1 c-3 -8 -7 -3 -11 10 -4 17
-3 21 5 13 5 -5 8 -16 6 -23z m-251 -11 c-3 -8 -6 -5 -6 6 -1 11 2 17 5 13 3
-3 4 -12 1 -19z m95 0 c-7 -7 -12 -8 -12 -2 0 14 12 26 19 19 2 -3 -1 -11 -7
-17z m-232 -1 c0 -7 -10 -13 -21 -14 -21 -2 -21 -1 -3 12 24 18 24 18 24 2z
m440 5 c0 -5 -7 -17 -15 -28 -15 -19 -20 -8 -9 20 6 17 24 22 24 8z m-45 -32
c3 -5 1 -10 -4 -10 -6 0 -11 5 -11 10 0 6 2 10 4 10 3 0 8 -4 11 -10z m-341
-27 c4 -9 2 -11 -7 -6 -6 4 -18 8 -25 9 -25 4 -23 12 2 12 14 0 27 -7 30 -15z
m266 8 c0 -6 -4 -13 -10 -16 -5 -3 -10 1 -10 9 0 9 5 16 10 16 6 0 10 -4 10
-9z m85 -21 c3 -5 1 -10 -4 -10 -6 0 -11 5 -11 10 0 6 2 10 4 10 3 0 8 -4 11
-10z m67 -22 c-9 -9 -12 -7 -12 12 0 19 3 21 12 12 9 -9 9 -15 0 -24z m35 0
c-3 -7 -5 -2 -5 12 0 14 2 19 5 13 2 -7 2 -19 0 -25z m-90 -35 c-3 -10 -5 -4
-5 12 0 17 2 24 5 18 2 -7 2 -21 0 -30z m-30 5 c-3 -8 -6 -5 -6 6 -1 11 2 17
5 13 3 -3 4 -12 1 -19z m-244 -68 c-7 -8 -33 32 -33 49 0 9 8 3 19 -14 10 -16
16 -32 14 -35z m102 9 c18 -6 19 -7 2 -14 -23 -10 -48 12 -43 39 7 32 7 33 15
7 3 -13 15 -27 26 -32z m165 22 c0 -12 -29 -41 -41 -41 -15 0 -5 24 16 37 25
15 25 15 25 4z m17 -23 c-3 -8 -6 -5 -6 6 -1 11 2 17 5 13 3 -3 4 -12 1 -19z
m-110 -10 c-3 -8 -6 -5 -6 6 -1 11 2 17 5 13 3 -3 4 -12 1 -19z m118 -28 c-3
-5 -11 -10 -16 -10 -6 0 -7 5 -4 10 3 6 11 10 16 10 6 0 7 -4 4 -10z m-273
-195 l20 -30 -20 23 c-11 12 -25 22 -30 22 -6 0 -8 10 -4 22 4 16 7 18 10 8 3
-8 14 -28 24 -45z m104 28 c-7 -7 -26 7 -26 19 0 6 6 6 15 -2 9 -7 13 -15 11
-17z m309 -78 c-23 -48 -30 -38 -11 16 11 30 12 47 5 56 -6 6 -7 18 -3 25 6 9
11 1 17 -24 7 -28 5 -45 -8 -73z m-318 32 c6 0 13 -11 16 -24 4 -20 1 -23 -17
-17 -21 7 -45 32 -46 48 0 4 8 5 18 1 9 -4 22 -8 29 -8z m248 -48 c-27 -86
-57 -142 -66 -128 -4 7 -6 16 -4 19 2 4 7 31 10 61 7 60 21 83 44 74 8 -3 12
-3 8 1 -4 4 -2 13 5 21 19 24 21 5 3 -48z m45 46 c0 -8 -4 -15 -10 -15 -5 0
-7 7 -4 15 4 8 8 15 10 15 2 0 4 -7 4 -15z m-437 -16 c-4 -13 -9 -17 -15 -11
-11 11 -3 32 12 32 4 0 6 -9 3 -21z m57 -41 c0 -6 -3 -8 -7 -5 -3 4 -12 2 -20
-4 -8 -8 -13 -8 -13 -1 0 10 15 19 33 21 4 1 7 -4 7 -11z m363 -59 c-18 -30
-33 -38 -33 -16 0 20 30 58 41 51 5 -3 2 -18 -8 -35z m-42 -76 c-5 -10 -17
-27 -26 -38 -16 -19 -17 -19 -3 5 26 46 29 50 34 50 3 0 0 -8 -5 -17z"/>
<path d="M5156 5509 c3 -6 1 -15 -6 -19 -9 -6 -7 -10 8 -14 13 -4 22 -19 26
-42 5 -22 11 -32 18 -27 7 3 3 -8 -8 -27 -22 -38 -44 -50 -44 -25 0 9 9 19 20
22 20 5 28 23 10 23 -5 0 -10 6 -10 13 0 12 -44 37 -66 37 -7 0 -19 9 -27 20
-21 29 -28 13 -9 -20 23 -39 10 -47 -45 -27 -58 22 -68 13 -67 -54 1 -64 27
-101 75 -107 40 -4 43 -6 36 -27 -4 -10 -20 -15 -47 -15 -46 0 -50 -10 -20
-55 29 -44 26 -64 -6 -34 l-27 24 7 -45 c4 -25 9 -55 13 -67 3 -14 1 -23 -6
-23 -6 0 -14 14 -18 30 -3 17 -10 33 -16 37 -7 4 -8 -17 -3 -63 8 -73 2 -78
-19 -17 l-14 38 -2 -35 -1 -35 -7 30 c-4 17 -3 48 1 70 13 72 11 83 -17 77
-25 -4 -35 11 -15 23 6 3 10 36 9 73 l-1 67 -20 -44 c-16 -34 -18 -49 -10 -62
8 -13 8 -19 -1 -22 -9 -3 -8 -12 3 -33 16 -30 15 -84 -1 -84 -8 0 -14 30 -10
53 0 4 -3 7 -9 7 -5 0 -10 15 -10 34 0 22 -9 42 -27 62 -18 19 -26 38 -24 56
3 30 -5 37 -48 42 -37 4 -43 -10 -26 -61 20 -57 23 -99 7 -95 -7 1 -24 -10
-38 -25 -17 -19 -27 -24 -31 -15 -3 7 -23 12 -48 12 -24 0 -45 5 -47 10 -2 7
-14 7 -36 -1 -26 -9 -32 -16 -32 -40 0 -23 -5 -29 -22 -30 -17 -1 -19 -2 -5
-6 18 -5 21 -13 17 -48 -3 -36 -18 -40 -45 -11 -30 33 -31 39 -5 31 11 -4 20
-2 20 4 0 6 -12 11 -26 11 -14 0 -43 15 -66 32 -43 35 -67 38 -116 12 -15 -7
-39 -14 -54 -14 -16 0 -28 -4 -28 -9 0 -13 -67 -34 -85 -27 -8 3 -15 1 -15 -4
0 -6 26 -10 59 -10 32 0 73 -3 90 -6 29 -6 31 -8 25 -44 -5 -31 0 -52 30 -110
39 -78 43 -96 24 -103 -7 -3 2 -8 20 -12 18 -4 41 -18 51 -31 20 -26 45 -142
35 -167 -3 -8 -1 -18 4 -21 6 -3 13 1 16 9 5 13 10 14 27 4 12 -6 34 -9 50 -7
25 4 29 1 36 -26 4 -17 8 -47 9 -66 3 -77 4 -80 23 -80 51 0 66 -86 26 -150
-30 -48 -32 -59 -5 -35 13 12 27 15 45 11 30 -8 33 -26 4 -26 -11 0 -18 -4
-15 -9 4 -5 -4 -22 -17 -38 -13 -15 -30 -45 -36 -65 -12 -36 -85 -107 -98 -95
-3 4 -1 19 5 34 6 15 13 41 16 56 4 17 11 25 18 21 6 -4 8 -3 5 3 -8 13 -74 0
-91 -18 -8 -9 -8 -10 3 -4 19 11 32 -14 25 -51 -4 -21 -1 -36 10 -47 9 -9 12
-18 7 -21 -5 -3 -7 -16 -3 -28 3 -14 1 -19 -6 -14 -6 3 -13 2 -17 -4 -3 -5 1
-10 11 -10 13 0 14 -3 4 -15 -9 -11 -9 -15 -1 -15 6 0 14 7 17 15 4 8 12 15
19 15 23 0 29 22 10 37 -11 7 -15 13 -10 13 5 0 16 -7 26 -16 21 -19 14 -44
-12 -44 -10 0 -19 -4 -19 -10 0 -5 9 -10 19 -10 11 0 23 -4 26 -10 4 -6 -1 -7
-11 -3 -34 13 -5 -14 38 -34 84 -41 260 -84 318 -77 14 1 29 3 34 3 5 1 -1 12
-13 25 -34 36 -31 115 2 87 12 -9 14 -7 13 11 -1 13 -11 27 -24 34 -16 8 -20
14 -12 19 11 7 -112 95 -134 95 -6 0 -12 15 -13 33 -5 60 -10 72 -31 75 -24 4
-42 -28 -42 -74 0 -15 -6 -24 -15 -24 -12 0 -14 7 -9 28 9 45 26 82 36 82 8 0
2 76 -8 92 -2 3 0 9 6 13 5 3 10 17 10 30 0 20 7 25 55 36 69 15 134 57 208
132 45 46 52 58 34 55 -18 -2 -23 3 -25 26 -2 16 1 33 7 39 8 8 11 5 11 -11 0
-18 6 -22 29 -22 34 0 56 28 64 80 3 19 8 45 12 57 5 15 1 27 -13 40 -39 37
-63 53 -71 49 -12 -8 -36 65 -33 100 3 27 7 31 35 32 17 0 36 -3 43 -8 17 -15
124 49 175 105 48 53 99 128 99 145 0 5 -4 10 -10 10 -5 0 -10 11 -10 25 0 14
5 25 10 25 6 0 10 -10 10 -22 1 -36 16 -1 23 49 3 30 1 43 -9 47 -8 3 -14 12
-14 20 0 7 -11 21 -25 30 -36 24 -49 61 -33 96 l12 28 23 -21 c12 -12 23 -28
23 -36 0 -8 3 -11 7 -7 4 4 -4 27 -17 51 -18 34 -29 44 -42 39 -10 -3 -18 -1
-18 5 0 6 -7 11 -15 11 -14 0 -18 9 -13 28 1 4 9 6 18 4 13 -2 13 -2 0 7 -20
14 -53 14 -44 0z m-146 -120 c0 -18 -2 -19 -15 -9 -8 7 -15 16 -15 21 0 5 7 9
15 9 9 0 15 -9 15 -21z m47 -36 c4 -10 11 -21 17 -25 7 -5 4 -8 -6 -8 -20 0
-50 28 -43 41 10 15 25 10 32 -8z m87 -19 c4 -9 4 -19 2 -21 -8 -8 -26 8 -26
23 0 19 16 18 24 -2z m-24 -24 c0 -5 -4 -10 -10 -10 -5 0 -10 5 -10 10 0 6 5
10 10 10 6 0 10 -4 10 -10z m132 -67 c16 -32 2 -41 -23 -16 -18 18 -19 23 -7
42 8 13 14 16 16 9 2 -7 8 -23 14 -35z m-89 22 c31 -13 47 -31 47 -56 0 -5 -5
-9 -11 -9 -7 0 -18 -8 -25 -17 -12 -16 -13 -16 -14 8 0 15 -7 32 -15 39 -23
19 -40 -2 -40 -49 0 -32 -2 -37 -18 -33 -16 4 -18 11 -13 44 6 40 32 88 46 88
4 0 23 -7 43 -15z m-33 -81 c0 -8 -4 -12 -10 -9 -5 3 -10 10 -10 16 0 5 5 9
10 9 6 0 10 -7 10 -16z m64 -45 c-3 -5 -10 -7 -15 -3 -5 3 -7 10 -3 15 3 5 10
7 15 3 5 -3 7 -10 3 -15z m-579 -19 c3 -5 16 -10 28 -10 15 0 18 -3 10 -11
-13 -13 -65 1 -71 19 -4 14 24 16 33 2z m115 -31 c0 -24 -23 -21 -28 4 -2 10
3 17 12 17 10 0 16 -9 16 -21z m-425 1 c-3 -5 -16 -10 -28 -10 -18 0 -19 2 -7
10 20 13 43 13 35 0z m925 -9 c0 -10 -10 -26 -23 -34 l-24 -15 16 34 c18 37
31 44 31 15z m-471 -85 c-3 -3 -11 5 -18 17 -13 21 -12 21 5 5 10 -10 16 -20
13 -22z m271 -10 c0 -3 -4 -8 -10 -11 -5 -3 -10 -1 -10 4 0 6 5 11 10 11 6 0
10 -2 10 -4z m-220 -96 c12 -8 10 -10 -9 -10 -20 0 -21 -2 -11 -15 7 -8 19
-15 26 -15 8 0 14 -4 14 -10 0 -5 -7 -10 -16 -10 -11 0 -14 -5 -10 -16 7 -18
-16 -44 -39 -44 -9 0 -13 -4 -10 -10 3 -5 17 -10 31 -10 17 0 23 -4 18 -12 -5
-8 2 -9 24 -5 18 4 32 2 32 -3 0 -5 10 -9 21 -7 14 1 23 -4 25 -16 1 -11 0
-16 -3 -13 -3 3 -14 -6 -25 -19 -22 -29 -71 -33 -102 -10 -11 8 -27 15 -36 15
-17 0 -65 48 -57 56 3 3 14 6 25 7 11 0 19 4 16 8 -2 4 -25 4 -50 1 -42 -4
-47 -3 -41 13 6 15 3 17 -22 13 -32 -5 -54 19 -26 27 8 3 23 8 33 12 9 3 22 7
27 7 6 1 9 10 8 21 -4 37 117 71 157 45z m-195 -60 c3 -5 -1 -10 -10 -10 -9 0
-13 5 -10 10 3 6 8 10 10 10 2 0 7 -4 10 -10z m-35 -114 c0 -3 -4 -8 -10 -11
-5 -3 -10 -1 -10 4 0 6 5 11 10 11 6 0 10 -2 10 -4z m94 -47 c-3 -5 -10 -7
-15 -3 -5 3 -7 10 -3 15 3 5 10 7 15 3 5 -3 7 -10 3 -15z m277 -4 c-1 -15 -24
-12 -29 3 -3 9 2 13 12 10 10 -1 17 -7 17 -13z m-231 -39 c0 -3 -4 -8 -10 -11
-5 -3 -10 -1 -10 4 0 6 5 11 10 11 6 0 10 -2 10 -4z m234 -15 c13 -14 14 -21
5 -27 -7 -4 -10 -3 -5 4 3 6 2 13 -4 17 -5 3 -10 -1 -10 -9 0 -18 -4 -19 -37
-10 -13 4 -23 11 -23 16 0 6 7 8 15 4 9 -3 15 0 15 9 0 21 24 19 44 -4z m-539
-11 c3 -5 -1 -10 -10 -10 -9 0 -13 5 -10 10 3 6 8 10 10 10 2 0 7 -4 10 -10z
m105 0 c0 -5 -4 -10 -10 -10 -5 0 -10 5 -10 10 0 6 5 10 10 10 6 0 10 -4 10
-10z m115 -9 c-3 -6 -14 -11 -23 -11 -13 0 -13 2 4 14 21 15 30 14 19 -3z
m175 -1 c0 -5 -4 -10 -10 -10 -5 0 -10 5 -10 10 0 6 5 10 10 10 6 0 10 -4 10
-10z m185 -20 c3 -5 1 -10 -4 -10 -6 0 -11 5 -11 10 0 6 2 10 4 10 3 0 8 -4
11 -10z m-113 -22 c-7 -7 -12 -8 -12 -2 0 6 3 14 7 17 3 4 9 5 12 2 2 -3 -1
-11 -7 -17z m-35 -20 c-3 -7 -5 -2 -5 12 0 14 2 19 5 13 2 -7 2 -19 0 -25z
m-157 -8 c0 -5 -2 -10 -4 -10 -3 0 -8 5 -11 10 -3 6 -1 10 4 10 6 0 11 -4 11
-10z m-20 -490 c0 -5 -7 -10 -15 -10 -8 0 -15 5 -15 10 0 6 7 10 15 10 8 0 15
-4 15 -10z m-120 -150 c0 -5 -4 -10 -10 -10 -5 0 -10 5 -10 10 0 6 5 10 10 10
6 0 10 -4 10 -10z m260 -10 c0 -5 -7 -10 -16 -10 -8 0 -12 5 -9 10 3 6 10 10
16 10 5 0 9 -4 9 -10z m-73 -6 c-3 -3 -12 -4 -19 -1 -8 3 -5 6 6 6 11 1 17 -2
13 -5z m18 -24 c3 -5 1 -10 -4 -10 -6 0 -11 5 -11 10 0 6 2 10 4 10 3 0 8 -4
11 -10z m44 -6 c7 4 11 -1 11 -12 0 -20 -25 -36 -41 -26 -5 3 -9 -4 -9 -15 0
-15 -6 -21 -23 -21 -28 0 -67 26 -67 45 0 7 -10 15 -22 17 -19 3 -17 5 9 9 18
3 30 2 28 -1 -6 -9 55 -53 62 -46 3 3 0 13 -8 22 -11 14 -10 16 11 12 20 -2
24 1 22 17 -2 15 -1 17 6 6 6 -7 15 -10 21 -7z"/>
<path d="M4733 4829 c11 -7 23 -7 35 0 14 9 11 10 -18 10 -29 0 -32 -1 -17
-10z"/>
<path d="M4666 4799 c-15 -9 -16 -13 -5 -20 8 -5 20 -2 30 7 11 10 19 12 24 5
8 -14 52 -14 60 -1 4 6 -6 10 -22 10 -15 0 -37 2 -48 5 -11 3 -28 0 -39 -6z"/>
<path d="M4810 4695 c-10 -12 -10 -15 4 -15 9 0 16 7 16 15 0 8 -2 15 -4 15
-2 0 -9 -7 -16 -15z"/>
<path d="M4797 5469 c6 -22 23 -26 23 -5 0 8 -6 16 -14 19 -10 4 -12 0 -9 -14z"/>
<path d="M4740 5402 c0 -11 8 -18 20 -19 11 -1 20 2 20 7 0 5 -9 14 -20 20
-17 9 -20 8 -20 -8z"/>
<path d="M4531 5384 c0 -11 3 -14 6 -6 3 7 2 16 -1 19 -3 4 -6 -2 -5 -13z"/>
<path d="M5290 5333 c0 -12 5 -25 10 -28 13 -8 13 15 0 35 -8 12 -10 11 -10
-7z"/>
<path d="M4290 5246 c0 -8 5 -18 10 -21 6 -3 10 3 10 14 0 12 -4 21 -10 21 -5
0 -10 -6 -10 -14z"/>
<path d="M4035 4852 c-5 -4 -19 -18 -30 -31 l-20 -24 33 17 c17 9 32 23 32 31
0 17 -1 18 -15 7z"/>
<path d="M4944 4846 c-3 -8 -1 -23 5 -33 9 -16 10 -15 11 9 0 17 6 28 18 31
12 4 11 5 -6 6 -12 0 -25 -5 -28 -13z"/>
<path d="M5012 4750 c0 -14 2 -19 5 -12 2 6 2 18 0 25 -3 6 -5 1 -5 -13z"/>
<path d="M4268 4693 c7 -3 16 -2 19 1 4 3 -2 6 -13 5 -11 0 -14 -3 -6 -6z"/>
<path d="M4143 4663 c-21 -14 -33 -54 -15 -52 12 0 53 57 45 62 -5 3 -18 -2
-30 -10z"/>
<path d="M4330 4641 c0 -12 5 -21 10 -21 6 0 10 6 10 14 0 8 -4 18 -10 21 -5
3 -10 -3 -10 -14z"/>
<path d="M5875 4649 c-4 -6 -5 -12 -2 -15 7 -7 37 7 37 17 0 13 -27 11 -35 -2z"/>
<path d="M3927 4603 c-10 -33 -11 -52 -4 -61 5 -7 10 -35 11 -61 1 -40 4 -47
14 -38 9 7 12 23 8 46 -3 20 -6 64 -5 99 0 34 -2 62 -5 62 -3 0 -12 -21 -19
-47z"/>
<path d="M3895 4610 c-4 -17 -5 -34 -2 -36 3 -3 8 9 12 26 4 17 5 34 2 36 -3
3 -8 -9 -12 -26z"/>
<path d="M3970 4628 c0 -23 34 -88 44 -84 11 4 11 8 -8 64 -10 30 -36 45 -36
20z"/>
<path d="M4325 4590 c-19 -8 -19 -9 3 -9 12 -1 22 4 22 9 0 6 -1 10 -2 9 -2 0
-12 -4 -23 -9z"/>
<path d="M5849 4581 c-14 -16 -14 -18 4 -27 27 -12 18 -29 -15 -29 -27 0 -28
-2 -28 -46 0 -42 18 -78 32 -64 3 3 17 1 32 -5 22 -8 28 -7 33 7 4 9 1 19 -5
21 -28 9 1 92 33 92 8 0 17 5 20 10 10 16 -14 40 -41 40 -12 0 -26 5 -29 10
-8 14 -17 11 -36 -9z"/>
<path d="M6163 4475 c0 -27 2 -38 4 -22 2 15 2 37 0 50 -2 12 -4 0 -4 -28z"/>
<path d="M5973 4448 c-6 -7 -13 -25 -17 -40 -3 -14 -14 -29 -24 -31 -9 -3 3
-5 27 -6 24 0 41 2 38 6 -4 3 0 14 9 24 12 14 13 22 4 38 -12 24 -23 26 -37 9z"/>
<path d="M6082 4425 c0 -16 2 -22 5 -12 2 9 2 23 0 30 -3 6 -5 -1 -5 -18z"/>
<path d="M4442 4426 c14 -14 58 -31 58 -22 0 4 -59 36 -67 36 -3 0 2 -6 9 -14z"/>
<path d="M5740 4415 c0 -8 4 -15 8 -15 5 0 9 7 9 15 0 8 -4 15 -9 15 -4 0 -8
-7 -8 -15z"/>
<path d="M5620 4396 c0 -10 9 -16 21 -16 24 0 21 23 -4 28 -10 2 -17 -3 -17
-12z"/>
<path d="M3871 4384 c0 -11 3 -14 6 -6 3 7 2 16 -1 19 -3 4 -6 -2 -5 -13z"/>
<path d="M5490 4391 c0 -16 29 -33 46 -27 13 5 14 1 9 -23 -8 -35 4 -45 41
-31 15 6 29 8 32 6 3 -3 -7 -10 -21 -15 -31 -12 -27 -38 9 -72 23 -21 24 -21
24 -3 0 10 7 28 15 38 12 16 19 18 40 8 26 -12 32 -26 15 -37 -5 -3 -7 -12 -4
-20 4 -9 -3 -16 -21 -21 -14 -3 -24 -11 -23 -16 4 -10 4 -10 49 -1 21 4 28 10
24 21 -3 8 -3 30 1 49 5 26 15 38 43 53 20 10 30 19 23 20 -7 0 -39 12 -70 27
-37 18 -57 22 -60 15 -6 -19 -30 -14 -70 13 -35 24 -102 35 -102 16z"/>
<path d="M6153 4342 c-7 -35 -23 -88 -37 -119 -30 -63 -33 -81 -11 -63 8 7 22
38 31 69 8 31 20 68 25 82 6 15 9 42 7 60 -2 29 -5 24 -15 -29z"/>
<path d="M3882 4340 c0 -14 2 -19 5 -12 2 6 2 18 0 25 -3 6 -5 1 -5 -13z"/>
<path d="M3890 4301 c0 -15 50 -114 55 -109 2 2 -9 30 -25 62 -17 32 -30 54
-30 47z"/>
<path d="M5903 4300 c18 -11 18 -13 1 -31 -16 -18 -16 -20 4 -42 12 -13 22
-27 22 -32 0 -4 8 -13 17 -20 15 -11 15 -15 -6 -43 -24 -34 -46 -33 -55 1 -5
19 -8 20 -16 7 -8 -12 -12 -12 -18 -2 -13 19 -35 6 -56 -33 -17 -30 -24 -35
-56 -35 -28 0 -39 -5 -48 -22 -13 -25 -33 -121 -26 -127 2 -2 4 1 4 8 0 7 4
10 9 6 6 -3 8 -14 6 -25 -6 -29 10 -33 50 -12 36 18 36 18 16 37 -16 14 -18
21 -10 32 13 14 33 18 25 4 -13 -20 46 -21 77 -2 52 32 159 147 162 173 4 38
5 39 14 33 16 -9 24 15 11 30 -10 12 -10 18 0 30 17 20 -5 65 -30 65 -10 0
-39 3 -66 6 -39 4 -45 3 -31 -6z m17 -230 c0 -5 -2 -10 -4 -10 -3 0 -8 5 -11
10 -3 6 -1 10 4 10 6 0 11 -4 11 -10z m-180 -30 c0 -5 -4 -10 -10 -10 -5 0
-10 5 -10 10 0 6 5 10 10 10 6 0 10 -4 10 -10z m50 -7 c-1 -14 -27 -43 -33
-37 -7 7 14 44 25 44 5 0 8 -3 8 -7z m-60 -21 c0 -4 -7 -18 -16 -31 -19 -27
-40 -14 -29 18 6 19 45 31 45 13z m-15 -112 c-3 -5 -12 -10 -18 -10 -7 0 -6 4
3 10 19 12 23 12 15 0z"/>
<path d="M4964 4148 c3 -13 6 -26 6 -30 0 -5 5 -8 10 -8 17 0 11 47 -6 54 -13
5 -15 2 -10 -16z"/>
<path d="M5992 4043 c-37 -38 -83 -80 -102 -95 l-34 -28 26 0 c39 0 152 101
187 168 22 41 -8 24 -77 -45z"/>
<path d="M3970 4075 c0 -2 8 -11 17 -20 9 -10 17 -25 18 -34 0 -9 5 -23 10
-31 5 -8 4 -15 -2 -17 -6 -2 -9 -14 -6 -26 5 -21 4 -21 -17 3 l-22 25 6 -55
c8 -78 46 -282 57 -302 17 -33 41 -203 36 -250 -5 -41 -3 -50 16 -63 12 -8 23
-25 24 -38 0 -12 4 -33 9 -46 9 -31 -16 -25 -31 7 -11 25 -25 29 -25 8 0 -17
29 -80 58 -126 12 -19 22 -40 22 -46 0 -6 16 -38 35 -70 41 -68 44 -91 11
-104 -22 -8 -24 -13 -19 -51 4 -30 3 -40 -5 -35 -13 8 -15 -7 -6 -41 4 -13 14
-23 25 -23 29 0 34 -21 8 -41 -22 -17 -23 -19 -7 -35 9 -9 34 -18 55 -19 26
-1 48 -10 64 -26 13 -13 42 -38 64 -56 31 -25 37 -34 28 -44 -14 -14 -36 -2
-98 55 -49 45 -81 46 -78 1 3 -72 8 -165 8 -165 0 0 15 4 33 9 32 10 34 8 59
-33 21 -34 30 -42 49 -38 13 2 37 -1 55 -7 17 -6 35 -8 40 -6 13 9 -1 35 -20
36 -9 0 -11 3 -5 5 15 6 5 46 -13 57 -16 10 -18 67 -2 67 7 0 9 -9 6 -21 -4
-14 1 -22 17 -29 26 -9 43 -29 44 -50 1 -8 6 -33 11 -55 6 -22 13 -52 16 -67
7 -36 56 -92 100 -112 47 -23 149 -40 169 -29 14 8 -36 27 -129 49 -22 5 -25
8 -12 11 10 3 32 0 49 -6 17 -6 52 -11 79 -11 55 0 79 -7 79 -24 0 -8 19 -12
58 -13 31 0 80 -6 107 -14 106 -29 231 -11 300 45 17 13 18 17 5 25 -12 9 -12
11 2 16 28 11 35 -2 42 -77 4 -40 9 -80 12 -90 6 -19 -42 -37 -176 -65 -110
-23 -338 -23 -424 1 -32 8 -61 18 -64 21 -3 2 78 2 179 0 110 -3 171 -1 152 4
-18 5 -44 16 -57 25 -31 20 -58 20 -115 0 -82 -28 -220 1 -311 66 -21 15 -30
17 -34 8 -3 -7 -4 -4 -1 7 8 36 -10 50 -68 50 -46 0 -62 5 -103 35 -27 19 -56
41 -65 50 -9 8 -45 38 -79 65 -66 53 -82 78 -74 116 4 19 3 21 -5 8 -5 -8 -12
-28 -14 -45 -3 -23 -8 -28 -25 -26 -24 4 -30 -12 -9 -25 24 -14 47 -57 47 -85
0 -25 3 -28 25 -22 21 5 32 -1 60 -31 19 -20 40 -45 45 -56 10 -17 8 -18 -21
-12 -25 5 -35 1 -54 -19 -13 -14 -25 -38 -27 -53 -3 -24 -10 -31 -52 -44 -59
-19 -73 -41 -26 -41 36 0 91 -26 138 -67 l34 -28 -34 0 c-27 0 -36 -6 -50 -35
-10 -19 -18 -43 -18 -53 0 -10 -8 -32 -17 -48 -18 -30 -18 -31 20 -98 20 -38
37 -75 37 -83 0 -20 -58 -71 -104 -91 -53 -25 -34 -41 47 -42 34 0 67 -3 72
-7 21 -13 38 9 32 41 -4 17 -5 31 -3 31 13 0 69 -35 73 -47 3 -8 0 -60 -7
-116 -7 -56 -13 -115 -14 -132 -1 -16 -7 -40 -14 -53 -7 -12 -10 -27 -7 -32 3
-6 -5 -10 -19 -10 -29 0 -43 -15 -21 -24 9 -3 15 -18 15 -36 0 -33 19 -41 27
-11 3 12 14 18 34 19 35 1 37 -13 7 -45 -12 -13 -18 -26 -13 -30 4 -5 10 -2
12 5 3 6 11 12 19 12 7 0 11 -6 8 -14 -3 -8 3 -16 15 -19 15 -4 19 -10 15 -22
-4 -10 -1 -21 6 -25 19 -12 4 -60 -18 -60 -10 0 -23 5 -29 11 -9 9 -10 6 -6
-10 4 -17 1 -24 -16 -28 -25 -6 -27 -18 -5 -27 27 -11 42 -7 73 20 31 26 32
26 66 10 20 -10 40 -14 45 -11 23 14 8 -14 -16 -30 l-25 -16 26 -25 c15 -13
23 -29 19 -36 -7 -11 8 -5 34 15 17 13 -4 38 -25 30 -11 -4 -9 1 5 15 26 26
32 27 32 6 0 -10 6 -14 15 -10 17 6 22 -29 5 -39 -5 -3 -15 -15 -20 -26 -8
-15 -7 -19 4 -19 8 0 17 8 19 18 4 14 6 13 12 -6 5 -13 13 -21 21 -18 7 3 16
-3 19 -14 3 -10 17 -26 31 -35 20 -13 23 -19 13 -31 -9 -11 -8 -14 7 -14 30
-1 64 -34 57 -58 -4 -16 -1 -20 14 -16 21 5 83 -48 83 -72 0 -10 6 -13 19 -9
12 3 21 0 25 -10 3 -8 15 -15 26 -15 13 0 20 -7 20 -20 0 -11 -4 -20 -9 -20
-12 0 -21 -39 -10 -46 5 -3 9 0 9 7 0 24 34 89 44 86 6 -2 12 -15 14 -28 3
-22 7 -25 31 -21 16 2 32 -1 36 -8 6 -10 1 -11 -20 -6 -23 6 -26 4 -21 -9 4
-10 -2 -19 -17 -25 -18 -8 -16 -9 11 -4 17 3 32 2 32 -3 0 -5 9 -19 21 -32 12
-12 22 -30 23 -39 4 -27 25 -25 32 2 3 14 11 27 18 27 64 8 86 6 96 -6 10 -12
9 -15 -9 -15 -11 0 -21 -4 -21 -10 0 -13 45 -24 70 -17 11 3 20 4 20 2 0 -6
-63 -35 -76 -35 -19 0 -7 -25 19 -39 25 -13 167 2 177 19 10 16 70 25 70 10 0
-7 -7 -10 -16 -6 -12 5 -15 2 -10 -10 3 -8 6 -22 6 -29 0 -8 7 -11 20 -8 26 7
80 -33 80 -59 0 -17 4 -20 29 -15 27 6 30 3 33 -21 l3 -27 124 -3 c90 -2 126
1 132 10 6 9 11 9 22 0 11 -9 80 -12 258 -10 140 2 235 7 224 11 -11 5 -28 13
-38 18 -13 7 -23 7 -32 -1 -21 -18 -36 -2 -33 34 l2 32 45 -7 c76 -13 92 -11
98 11 3 11 10 20 15 20 5 0 6 -5 2 -11 -7 -12 37 -2 46 10 3 4 20 8 39 9 18 1
40 6 48 10 7 5 -53 8 -134 8 -141 -1 -269 16 -259 33 3 4 36 3 73 -2 100 -14
334 -2 418 21 71 19 246 89 255 102 3 4 24 17 46 28 23 12 48 27 55 34 45 43
72 57 90 47 25 -13 24 -31 -2 -47 -13 -8 -18 -19 -15 -29 4 -11 2 -14 -9 -9
-8 3 -15 1 -15 -4 0 -6 -7 -10 -15 -10 -8 0 -29 -16 -47 -36 -18 -20 -48 -52
-65 -70 -18 -19 -33 -41 -33 -50 0 -8 -6 -22 -14 -30 -8 -7 -12 -22 -9 -33 3
-13 -2 -20 -20 -25 -30 -7 -45 -36 -19 -36 10 0 23 5 30 12 20 20 26 -1 7 -22
-18 -20 -18 -20 198 -20 138 0 217 4 217 10 0 6 -7 10 -15 10 -8 0 -15 9 -15
19 0 10 -7 21 -15 25 -9 3 -12 12 -8 22 4 12 3 15 -5 10 -15 -9 -15 5 1 25 7
9 19 14 27 12 10 -3 11 -2 3 4 -6 4 -15 22 -19 38 -4 16 -13 36 -21 43 -19 19
-16 40 7 47 13 4 20 16 21 33 4 109 0 192 -11 211 -6 13 -10 32 -7 42 3 10 2
21 -2 24 -4 2 -6 19 -4 37 l5 33 -20 -30 c-43 -64 -182 -207 -239 -246 -56
-39 -143 -77 -174 -77 -13 0 -47 -3 -74 -7 -28 -4 -66 -3 -87 3 -31 8 -44 6
-89 -17 -99 -48 -267 -40 -378 20 -19 10 -48 19 -63 19 -35 0 -36 16 -2 24 18
5 40 -2 79 -24 43 -25 74 -33 149 -42 116 -13 153 -7 211 37 51 39 60 41 81
20 18 -17 110 -21 134 -5 11 7 -1 10 -40 10 -43 0 -59 5 -73 20 -13 16 -21 18
-42 10 -36 -14 -40 -13 -24 8 8 9 21 29 28 44 17 34 36 41 55 23 17 -17 42
-20 51 -5 3 6 22 10 41 10 35 0 44 -16 22 -38 -9 -9 -9 -12 1 -12 19 0 81 31
81 40 0 4 12 11 26 14 40 10 110 87 117 128 3 19 14 54 25 77 13 26 16 41 9
41 -7 1 -3 8 8 18 25 21 66 77 82 112 10 21 11 22 12 5 1 -15 6 -11 20 15 10
19 15 37 10 38 -12 5 -12 32 0 32 5 0 11 -6 14 -12 3 -10 8 -10 21 1 14 12 19
12 26 2 4 -8 16 -11 28 -7 16 5 21 14 19 37 -2 30 -12 39 -19 17 -3 -7 -17
-13 -32 -13 -21 -1 -26 3 -23 17 3 10 1 18 -4 18 -5 0 -9 6 -9 14 0 10 -9 13
-32 9 -31 -4 -32 -4 -13 11 20 15 20 15 -2 16 -24 0 -31 14 -13 25 6 3 10 2
10 -4 0 -6 6 -8 14 -5 7 3 20 -2 29 -10 19 -20 31 -21 24 -2 -3 8 10 30 31 51
20 20 38 31 40 26 2 -6 15 -11 28 -11 29 0 29 -1 5 -50 l-19 -40 23 0 c19 0
24 8 35 60 7 32 9 67 6 77 -7 17 -9 16 -26 -5 -11 -13 -21 -18 -25 -12 -3 5
-1 10 4 10 6 0 11 14 11 30 0 17 7 44 16 61 8 16 12 38 9 48 -3 10 3 37 14 60
10 24 16 51 14 62 -5 16 -9 14 -34 -17 -16 -20 -29 -31 -29 -24 0 6 9 23 20
37 11 14 20 31 20 38 0 7 7 18 15 25 8 7 15 8 15 2 0 -5 11 -9 24 -10 20 0 24
6 30 46 9 67 8 88 -4 76 -6 -6 -11 -27 -12 -46 -1 -30 -3 -34 -15 -23 -16 17
-17 45 -2 82 6 15 15 37 20 48 4 11 10 34 13 50 7 44 27 117 37 137 5 10 9 25
9 33 0 8 5 15 10 15 6 0 10 9 10 20 0 11 5 20 10 20 6 0 10 6 8 13 -1 6 3 22
10 35 7 12 12 28 11 35 -1 6 1 19 4 27 17 39 47 135 47 149 -1 24 -37 -26 -51
-69 -6 -19 -17 -44 -24 -55 -6 -11 -18 -37 -25 -59 -8 -26 -15 -34 -20 -25 -5
7 -4 21 1 30 13 26 11 52 -3 43 -9 -5 -8 -2 1 9 28 35 3 27 -28 -9 -18 -20
-40 -37 -49 -39 -9 -2 -18 -4 -20 -4 -2 -1 4 -8 12 -17 9 -8 14 -20 11 -25 -4
-5 1 -9 9 -9 9 0 16 5 16 10 0 6 5 10 10 10 6 0 10 -4 10 -10 0 -14 -53 -26
-58 -12 -5 16 -72 -48 -72 -69 0 -10 -5 -21 -10 -24 -6 -4 -8 -10 -5 -14 6
-11 -35 -56 -57 -64 -20 -7 -15 15 14 52 10 13 18 32 18 42 0 10 9 23 19 28
10 6 24 24 30 41 6 18 6 28 1 25 -24 -15 -6 12 39 60 28 29 53 50 57 46 4 -3
4 0 0 7 -5 8 2 16 18 22 14 5 26 12 26 15 0 4 -6 3 -12 -1 -7 -3 4 8 25 26 69
59 31 42 -59 -26 -49 -36 -96 -69 -104 -72 -8 -3 -24 -14 -34 -24 -11 -10 -32
-18 -47 -18 -32 0 -75 -32 -82 -62 -5 -19 -4 -21 6 -8 19 24 99 62 106 51 4
-6 12 -6 21 -1 12 8 11 10 -5 10 -13 0 -6 9 25 29 25 15 47 27 49 25 2 -2 -9
-17 -23 -35 -15 -17 -25 -38 -22 -45 3 -8 -1 -14 -9 -14 -21 0 -76 -50 -68
-62 4 -7 1 -8 -6 -3 -8 4 -33 -2 -60 -13 -98 -44 -186 -80 -188 -78 -2 1 6 20
17 41 11 22 20 34 20 28 0 -6 7 -14 16 -17 8 -3 13 -2 9 3 -3 5 0 11 6 13 6 2
-5 13 -26 23 -35 19 -37 19 -49 3 -7 -10 -18 -18 -24 -18 -5 0 -9 -8 -7 -17 1
-10 0 -12 -2 -5 -6 16 -31 15 -49 -2 -11 -11 -45 -15 -142 -15 -88 0 -122 3
-112 10 12 8 12 10 -5 8 -27 -3 -55 10 -55 25 0 8 26 12 83 13 99 2 281 28
334 48 38 14 37 15 -47 13 -47 -1 -92 2 -100 7 -12 7 -13 6 -3 -7 19 -23 4
-29 -20 -8 -17 16 -30 18 -91 14 -39 -4 -84 -6 -101 -6 -16 1 -50 1 -75 1 -30
1 -40 4 -31 10 7 4 9 11 4 14 -5 3 -7 40 -6 82 4 74 3 76 -17 65 -24 -13 -26
-3 -5 26 8 12 11 25 7 29 -4 5 -2 5 4 2 11 -6 32 12 49 42 5 9 4 12 -3 7 -7
-4 -12 -2 -12 3 0 6 7 11 16 11 10 0 14 5 10 16 -3 8 -2 12 4 9 6 -3 10 1 10
10 0 32 33 115 45 115 10 0 11 5 2 24 -7 14 -15 20 -18 14 -3 -5 -12 12 -18
39 -7 26 -21 63 -32 81 -23 41 -24 49 -2 31 9 -8 14 -9 11 -4 -10 16 8 39 22
30 7 -4 10 -22 8 -41 -5 -38 -2 -41 23 -18 26 23 42 8 36 -32 -4 -23 -2 -34 6
-34 15 0 38 -47 31 -64 -3 -7 2 -13 10 -13 8 0 13 4 10 9 -3 4 0 8 5 8 6 0 11
-6 12 -12 0 -7 4 -4 9 7 8 19 9 19 9 -3 1 -12 8 -25 16 -28 8 -4 15 -14 15
-24 0 -9 9 -29 20 -43 11 -14 20 -34 20 -46 0 -11 8 -26 19 -33 18 -13 35 -88
20 -88 -18 0 -39 13 -39 25 0 7 -7 16 -16 19 -15 6 -15 4 -3 -11 13 -15 12
-16 -6 -9 -33 12 -3 -10 32 -23 27 -11 35 -10 53 2 19 13 19 16 6 29 -11 11
-12 18 -4 26 9 9 7 17 -6 31 -21 23 -32 121 -15 121 6 0 9 -7 5 -15 -3 -8 -3
-15 0 -15 2 0 9 11 14 25 15 39 27 29 28 -22 1 -46 7 -102 12 -113 6 -15 18
57 13 82 -4 21 -2 28 8 26 11 -2 15 13 17 60 3 58 1 64 -28 95 -35 37 -48 73
-31 90 6 6 11 17 11 25 0 12 -5 11 -25 -2 -20 -13 -29 -14 -48 -5 l-22 12 20
-23 20 -23 -22 12 c-13 6 -30 26 -39 44 -22 41 -42 56 -77 57 -17 0 -26 4 -22
11 4 6 13 8 20 5 7 -2 16 2 19 10 4 10 -3 14 -27 15 -18 0 -26 3 -19 6 22 9
13 23 -10 14 -26 -10 -35 -62 -15 -83 7 -7 16 -21 20 -30 5 -15 3 -16 -11 -7
-19 12 -63 118 -66 157 -1 26 -14 29 -23 6 -3 -9 1 -29 11 -44 21 -37 12 -57
-29 -64 -39 -8 -115 13 -115 31 0 7 -4 13 -8 13 -5 0 -14 11 -21 24 -8 14 -26
26 -43 30 -25 5 -29 10 -26 33 3 27 6 28 53 27 28 -1 61 -5 74 -9 19 -6 22 -5
16 5 -6 9 -4 11 5 5 7 -4 16 -2 21 6 6 10 9 6 9 -13 0 -15 5 -30 10 -33 13 -8
13 7 0 41 -12 30 -2 144 10 124 5 -8 9 -5 13 9 3 13 0 21 -7 21 -13 0 -15 38
-3 58 5 6 5 12 0 12 -20 -1 -30 -19 -42 -73 -7 -34 -23 -69 -38 -85 l-24 -27
21 31 c15 22 20 39 15 54 -7 21 -7 21 -22 -7 -8 -15 -16 -35 -17 -43 -2 -8 -9
-15 -17 -16 -8 0 -17 -2 -21 -4 -5 -1 -12 -3 -17 -4 -5 0 -21 -13 -36 -28 -32
-33 -45 -34 -73 -10 -24 20 -39 62 -22 62 14 0 -11 49 -39 74 -12 11 -21 28
-21 38 0 10 -11 44 -24 76 -14 34 -22 68 -19 83 3 15 0 30 -6 33 -21 13 -11
25 39 41 28 9 50 21 50 26 0 5 10 4 23 -3 12 -7 32 -13 45 -15 25 -2 105 -28
134 -44 10 -5 24 -9 32 -9 12 0 13 4 3 23 -17 31 -56 69 -66 63 -4 -3 -24 -1
-43 4 -61 17 -117 20 -112 5 4 -9 -6 -12 -35 -9 -22 2 -43 -1 -46 -6 -8 -12
-25 -13 -25 -2 0 5 21 18 48 30 47 22 141 29 152 11 3 -4 12 -4 20 1 12 7 12
11 -1 26 -13 16 -12 17 11 9 14 -4 37 -8 53 -9 15 0 27 -4 27 -7 0 -3 12 -11
26 -18 22 -10 28 -8 44 11 11 14 19 18 20 10 0 -7 4 -11 9 -8 5 3 11 -4 14
-15 3 -12 10 -18 15 -15 5 3 12 -7 15 -22 4 -20 15 -32 41 -42 20 -7 36 -21
36 -29 1 -13 3 -13 11 2 12 20 8 131 -6 162 -4 11 17 -7 49 -39 l57 -59 17 24
c9 13 17 26 17 29 1 8 136 135 141 133 12 -8 16 -1 6 9 -16 16 -15 28 2 28 7
0 19 7 26 15 7 9 15 13 18 10 3 -3 11 0 19 6 7 6 13 8 13 4 0 -4 7 -2 15 5 8
7 15 20 15 30 0 25 -35 53 -58 45 -17 -5 -19 -2 -15 15 7 25 14 25 45 0 20
-15 28 -16 37 -7 10 9 12 9 9 -3 -2 -8 3 -14 10 -12 14 2 16 -14 2 -23 -17
-11 -11 -23 9 -18 13 3 17 11 13 26 -5 22 -5 22 16 3 24 -21 51 -15 59 13 7
27 33 15 33 -14 0 -13 -5 -25 -12 -27 -8 -3 -8 -9 -1 -22 9 -16 12 -13 27 19
15 31 16 39 5 46 -10 6 -11 9 -1 9 14 0 15 44 2 75 l-9 20 0 -20 c-1 -15 -3
-17 -10 -6 -6 10 -11 5 -16 -19 -7 -30 -8 -31 -18 -15 -7 14 -7 20 2 23 9 3 9
7 0 18 -6 8 -15 11 -20 8 -5 -3 -9 0 -9 6 0 7 8 9 20 5 14 -4 19 -2 17 7 -2 7
-2 10 0 6 7 -11 33 -10 33 2 0 5 -6 13 -13 17 -8 4 -19 17 -25 28 -11 20 -11
20 -12 -1 0 -11 -3 -23 -6 -26 -7 -8 -102 18 -120 33 -12 10 -13 9 -8 -5 9
-24 -12 -20 -30 6 -22 31 -20 41 7 27 19 -11 20 -10 10 3 -15 17 -7 29 13 21
10 -4 12 0 8 11 -4 10 -12 15 -19 12 -8 -3 -23 4 -36 15 -12 10 -26 19 -30 19
-15 0 -21 -22 -10 -33 18 -18 14 -49 -6 -45 -11 2 -17 11 -15 22 2 10 -3 25
-12 34 -13 16 -16 22 -16 38 0 3 -7 -2 -16 -10 -21 -21 -26 -53 -8 -53 9 0 12
7 8 19 -3 10 0 18 6 18 6 0 9 -4 5 -9 -3 -5 -1 -12 4 -15 4 -3 9 -27 9 -53 1
-25 6 -50 13 -53 7 -5 5 -9 -6 -14 -21 -8 -38 2 -29 16 5 7 1 9 -9 5 -10 -3
-24 -4 -32 -1 -11 5 -8 11 13 29 l26 23 -32 6 c-17 4 -36 5 -42 1 -17 -11 -11
3 11 24 12 11 18 24 15 29 -9 14 -55 21 -53 8 1 -6 -7 -9 -18 -8 -11 2 -30 5
-42 5 -13 1 -23 8 -23 15 0 6 -7 12 -16 12 -8 0 -13 -4 -9 -9 8 -13 -11 -23
-53 -27 -70 -7 -115 -19 -120 -32 -2 -6 1 -12 8 -12 6 0 9 -4 6 -9 -3 -5 -14
-7 -24 -4 -13 3 -28 -6 -45 -26 -14 -17 -29 -27 -32 -21 -3 5 -10 10 -15 10
-9 0 -7 -26 3 -36 4 -4 7 -14 7 -23 -1 -12 -5 -10 -20 8 -11 12 -18 27 -15 31
3 4 -29 7 -71 7 -70 0 -78 -3 -104 -29 -16 -15 -36 -28 -45 -28 -19 0 -45 -23
-45 -39 0 -6 -9 -11 -21 -11 -14 0 -24 -10 -32 -30 -6 -16 -15 -30 -19 -30 -4
0 -20 -19 -37 -42 -16 -24 -37 -52 -48 -63 -44 -49 -54 -81 -48 -156 5 -75 19
-107 63 -146 16 -13 23 -27 19 -38 -4 -9 -11 -13 -17 -10 -6 4 -8 10 -6 14 3
4 -7 7 -22 7 -15 -1 -30 -8 -34 -16 -6 -13 -7 -13 -7 0 -1 11 -13 17 -38 18
-33 3 -35 1 -22 -14 13 -16 12 -16 -8 -3 -13 8 -23 21 -24 29 0 10 -2 11 -6 3
-2 -7 -11 -13 -19 -13 -8 0 -14 -4 -14 -10 0 -5 5 -10 10 -10 6 0 10 -9 10
-20 0 -11 -4 -20 -10 -20 -5 0 -10 7 -10 16 0 21 -60 77 -61 58 -1 -8 -2 -19
-3 -26 -2 -20 -23 -19 -29 2 -3 11 -11 20 -17 20 -10 0 -10 -3 -1 -14 10 -12
8 -15 -8 -18 -20 -3 -20 -4 7 -35 32 -38 42 -41 42 -14 0 23 15 35 31 26 6 -5
4 -11 -6 -19 -10 -7 -14 -18 -9 -29 8 -22 34 -22 34 0 0 9 3 13 7 10 3 -4 12
-2 20 5 11 8 12 7 7 -6 -3 -9 -1 -16 6 -16 7 0 6 -6 -4 -16 -20 -19 -20 -28
-1 -21 8 4 17 2 21 -4 3 -6 -3 -13 -15 -16 -20 -5 -51 -53 -51 -78 0 -15 73
-13 92 2 7 6 35 20 62 32 39 17 51 19 58 9 5 -8 8 11 6 45 -1 42 -5 56 -14 53
-7 -3 -14 -1 -16 3 -5 13 -48 24 -48 12 0 -6 -7 -11 -15 -11 -8 0 -24 -10 -36
-22 -20 -21 -21 -21 -14 -3 5 11 8 30 8 43 -1 17 3 21 17 17 10 -3 21 -1 25 5
8 13 59 13 108 -1 31 -8 36 -13 27 -24 -8 -10 -8 -15 0 -20 7 -4 9 -16 6 -27
-2 -12 1 -39 8 -62 7 -22 19 -59 26 -82 6 -22 27 -58 45 -79 28 -34 35 -38 49
-26 9 8 16 9 16 3 0 -6 -6 -12 -12 -15 -10 -3 -10 -7 0 -20 11 -12 11 -20 2
-38 -10 -17 -9 -20 1 -14 9 6 11 3 6 -9 -4 -10 -5 -22 -1 -27 6 -11 34 14 34
31 0 6 5 8 10 5 6 -4 8 -21 4 -40 -3 -19 -1 -35 5 -39 6 -4 11 -2 11 3 0 6 5
11 10 11 6 0 10 -8 10 -17 0 -15 2 -16 10 -3 5 8 12 11 17 7 4 -4 2 -17 -5
-27 -7 -11 -12 -22 -12 -25 0 -9 39 -5 45 5 14 22 26 9 20 -20 -6 -26 -4 -30
14 -30 12 0 21 -6 21 -15 0 -8 4 -15 10 -15 6 0 9 -25 7 -60 -2 -33 0 -60 4
-60 4 0 9 -11 11 -25 3 -14 2 -25 -3 -25 -4 0 -9 10 -11 23 -5 33 -30 27 -57
-16 -14 -21 -35 -40 -48 -43 -17 -5 -22 -11 -18 -25 7 -21 -28 -61 -48 -54 -8
4 -21 -13 -34 -46 -16 -37 -26 -48 -35 -42 -7 4 -25 8 -40 9 -21 0 -30 -6 -40
-30 l-12 -31 -3 35 c-2 19 -6 46 -9 60 -6 24 -7 22 -29 -20 -18 -35 -25 -41
-30 -28 -4 9 -4 22 0 27 3 6 9 31 12 56 5 45 1 50 -34 46 -7 -1 -9 7 -6 20 5
16 3 20 -6 14 -8 -4 -10 -17 -6 -32 4 -17 2 -23 -6 -18 -8 5 -9 -1 -5 -22 4
-17 9 -52 11 -78 5 -47 5 -47 -23 -40 -15 3 -50 20 -79 36 -40 23 -50 33 -46
49 4 17 0 20 -26 20 -47 0 -31 -19 62 -73 77 -43 127 -80 127 -93 0 -2 -9 0
-20 6 -11 6 -20 9 -20 6 0 -12 -118 50 -138 73 -13 14 -21 20 -17 14 4 -9 1
-11 -9 -7 -9 3 -13 10 -10 15 5 8 -9 13 -29 10 -4 0 -6 4 -5 10 2 6 -11 18
-28 28 -64 35 -133 95 -204 177 -19 22 -29 32 -21 22 9 -12 10 -18 3 -18 -14
0 -34 35 -25 44 3 3 -2 15 -12 26 -10 11 -14 20 -10 20 5 0 2 6 -7 13 -20 16
-70 127 -57 127 6 0 7 5 3 12 -4 7 -3 8 5 4 7 -4 9 -17 6 -29 -4 -12 -3 -17 2
-11 4 6 16 14 27 17 11 5 16 13 12 23 -3 9 -6 22 -6 29 0 7 -29 25 -65 40 -73
31 -77 43 -51 120 7 22 16 65 20 97 19 181 180 412 367 525 41 25 59 63 59
127 1 26 12 61 30 96 17 30 26 56 21 58 -5 2 -28 -6 -50 -17 -22 -12 -49 -21
-61 -21 -22 0 -27 24 -7 37 25 15 112 41 121 36 5 -3 6 -1 3 4 -4 6 3 13 16
17 12 3 56 40 97 83 41 43 63 67 49 55 -14 -12 -29 -22 -33 -22 -4 0 -22 -11
-40 -25 -18 -14 -43 -25 -55 -25 -12 0 -47 -13 -79 -29 -63 -31 -112 -46 -112
-33 0 10 132 72 153 72 16 0 47 26 47 39 0 5 -37 -11 -82 -35 -104 -53 -217
-90 -320 -104 -86 -12 -111 -8 -57 9 32 10 32 11 4 6 -90 -14 -324 -29 -415
-27 -155 4 -232 19 -391 73 -31 10 -62 19 -69 19 -16 0 -177 77 -212 101 -14
11 -34 19 -44 19 -10 0 -50 26 -89 59 -39 32 -81 64 -93 70 -29 15 -72 31 -72
26z m260 -288 c0 -7 -4 -7 -12 1 -7 7 -20 12 -30 12 -9 0 -33 13 -51 30 -44
38 -111 135 -103 148 7 11 196 -173 196 -191z m-180 87 c0 -16 -17 -27 -17
-11 0 7 -4 21 -9 32 -7 18 -6 18 9 6 9 -7 17 -19 17 -27z m2955 -40 c17 -13
18 -16 5 -24 -23 -14 -27 -12 -32 15 -6 29 -1 30 27 9z m-195 -24 c-8 -14 -20
-19 -46 -18 -21 1 -39 -4 -45 -13 -6 -9 -9 -10 -9 -2 0 7 -6 10 -14 7 -8 -3
-17 -1 -21 5 -4 8 -13 8 -28 0 -30 -16 -37 -30 -23 -44 21 -22 41 -23 62 -3
17 15 23 16 32 5 9 -10 2 -16 -33 -26 -37 -11 -49 -11 -75 0 -16 8 -30 17 -30
22 0 4 -11 5 -25 1 -15 -4 -25 -2 -25 5 0 6 10 11 21 11 19 0 20 2 8 18 -11
14 -11 15 1 5 8 -7 23 -13 35 -12 11 0 14 3 7 6 -6 2 -10 9 -7 13 3 5 13 6 22
3 13 -5 15 -2 10 12 -7 15 -5 16 9 5 13 -12 17 -11 24 1 7 11 12 11 22 1 6 -6
21 -12 33 -12 17 0 18 2 5 11 -12 9 -12 10 4 5 10 -4 25 -1 32 5 8 6 21 9 29
5 8 -3 15 -1 15 5 0 6 5 7 10 4 7 -4 7 -13 0 -25z m-2392 -38 c3 -10 -4 -13
-24 -10 -15 2 -29 9 -32 16 -3 10 4 13 24 10 15 -2 29 -9 32 -16z m2385 -6 c3
-8 -5 -19 -21 -27 -15 -7 -31 -15 -37 -18 -5 -3 1 9 15 26 28 36 36 39 43 19z
m153 -23 c-7 -7 -26 7 -26 19 0 6 6 6 15 -2 9 -7 13 -15 11 -17z m-2641 -14
c15 -14 -7 -10 -35 7 l-25 15 25 -7 c14 -3 29 -10 35 -15z m138 14 c-7 -2 -19
-2 -25 0 -7 3 -2 5 12 5 14 0 19 -2 13 -5z m66 -2 c9 -6 10 -11 2 -15 -13 -8
-31 1 -31 15 0 11 11 11 29 0z m2491 -11 c-6 -11 -15 -18 -21 -15 -5 4 -9 1
-9 -4 0 -6 -4 -11 -10 -11 -5 0 -7 7 -3 16 3 8 12 13 19 10 8 -3 11 0 7 10 -3
9 1 14 11 14 14 0 15 -4 6 -20z m-180 0 c0 -5 -4 -10 -10 -10 -5 0 -10 5 -10
10 0 6 5 10 10 10 6 0 10 -4 10 -10z m298 -18 c6 -18 -15 -14 -22 4 -4 10 -1
14 6 12 6 -2 14 -10 16 -16z m-3058 -18 c0 -8 -4 -12 -10 -9 -5 3 -10 13 -10
21 0 8 5 12 10 9 6 -3 10 -13 10 -21z m2988 6 c10 -16 10 -20 -2 -20 -7 0 -16
9 -19 20 -3 11 -2 20 2 20 3 0 12 -9 19 -20z m34 8 c4 -39 3 -68 -4 -68 -4 0
-8 11 -8 24 0 13 -3 31 -6 40 -3 9 -1 16 5 16 6 0 12 -6 13 -12z m-242 -8 c0
-5 -2 -10 -4 -10 -3 0 -8 5 -11 10 -3 6 -1 10 4 10 6 0 11 -4 11 -10z m-2673
-22 c-3 -8 -6 -5 -6 6 -1 11 2 17 5 13 3 -3 4 -12 1 -19z m590 -16 c18 -21 22
-23 23 -9 0 20 16 23 23 5 4 -10 8 -9 16 2 8 12 13 12 23 2 9 -9 9 -12 -2 -13
-8 0 -4 -4 8 -10 35 -14 21 -34 -26 -37 -37 -3 -45 1 -72 31 -22 25 -40 36
-71 40 -68 9 -71 27 -3 21 49 -4 63 -9 81 -32z m456 31 c-7 -2 -19 -2 -25 0
-7 3 -2 5 12 5 14 0 19 -2 13 -5z m1007 3 c0 -3 -4 -8 -10 -11 -5 -3 -10 -1
-10 4 0 6 5 11 10 11 6 0 10 -2 10 -4z m630 -12 c17 3 30 2 30 -3 0 -14 -29
-21 -58 -15 -37 9 -43 14 -36 25 4 6 11 6 20 -2 8 -6 27 -9 44 -5z m172 -2 c4
-15 1 -18 -18 -14 -24 4 -30 13 -17 25 12 13 31 7 35 -11z m-552 -18 c0 -17
16 -19 23 -1 3 6 6 2 6 -10 1 -24 -6 -28 -25 -15 -15 10 -30 57 -15 48 6 -4
11 -14 11 -22z m497 -14 c1 -16 -1 -17 -12 -7 -11 10 -8 19 10 27 1 0 1 -9 2
-20z m-2027 -1 c-11 -8 -5 -9 25 -5 22 3 33 3 25 -1 -8 -3 -30 -19 -48 -36
-24 -23 -35 -28 -44 -19 -8 8 -8 15 1 26 6 7 11 18 10 22 -3 19 2 24 24 24 18
0 19 -2 7 -11z m1800 1 c8 -5 11 -10 5 -10 -5 0 -17 5 -25 10 -8 5 -10 10 -5
10 6 0 17 -5 25 -10z m185 0 c3 -5 -2 -10 -12 -10 -11 0 -24 -5 -31 -12 -9 -9
-12 -9 -12 3 0 9 3 19 7 22 10 10 41 8 48 -3z m205 -16 c0 -8 -4 -14 -10 -14
-5 0 -10 2 -10 4 0 2 -3 12 -6 20 -5 12 -2 15 10 10 9 -3 16 -12 16 -20z
m-2700 0 c0 -7 10 -19 22 -25 13 -7 18 -14 11 -16 -12 -4 -93 33 -93 43 0 3 4
3 9 -1 5 -3 12 -2 15 3 8 14 36 10 36 -4z m2610 -5 c0 -5 -4 -9 -10 -9 -5 0
-10 7 -10 16 0 8 5 12 10 9 6 -3 10 -10 10 -16z m-2863 -41 c-3 -8 -6 -5 -6 6
-1 11 2 17 5 13 3 -3 4 -12 1 -19z m2725 -36 c-14 -7 -27 -10 -30 -7 -3 2 2 7
11 11 28 10 -4 32 -40 27 -17 -3 -33 -1 -37 5 -3 5 5 7 18 5 14 -3 32 0 43 5
14 9 22 6 39 -11 l20 -22 -24 -13z m-373 -12 c0 -13 -1 -13 -8 0 -5 8 -12 26
-15 40 l-7 25 15 -25 c9 -14 15 -32 15 -40z m431 40 c0 -5 -4 -10 -10 -10 -5
0 -10 5 -10 10 0 6 5 10 10 10 6 0 10 -4 10 -10z m22 -17 c-10 -4 -9 -9 4 -24
9 -10 12 -19 6 -19 -18 0 -33 35 -20 48 7 7 14 9 17 5 3 -3 0 -8 -7 -10z
m-2897 -3 c3 -5 1 -10 -4 -10 -6 0 -11 5 -11 10 0 6 2 10 4 10 3 0 8 -4 11
-10z m2474 -230 c0 -10 -3 -8 -9 5 -12 27 -12 43 0 25 5 -8 9 -22 9 -30z m51
10 c0 -5 -2 -10 -4 -10 -3 0 -8 5 -11 10 -3 6 -1 10 4 10 6 0 11 -4 11 -10z
m-3 -62 c-3 -8 -6 -5 -6 6 -1 11 2 17 5 13 3 -3 4 -12 1 -19z m-517 -109 c0
-6 -4 -7 -10 -4 -5 3 -10 11 -10 16 0 6 5 7 10 4 6 -3 10 -11 10 -16z m-200
-138 c0 -5 -7 -11 -15 -15 -15 -5 -20 5 -8 17 9 10 23 9 23 -2z m-1660 -185
c-1 -16 -25 -46 -39 -46 -14 0 -14 25 -1 50 11 20 40 17 40 -4z m604 -42 c9
-3 16 -13 16 -21 0 -21 -44 -12 -48 10 -4 18 6 21 32 11z m1444 -91 c23 -24
38 -43 32 -43 -9 0 -54 42 -100 96 l-25 29 25 -20 c14 -11 44 -39 68 -62z
m-1288 12 c0 -19 -30 -19 -56 0 -18 13 -17 14 19 15 26 0 37 -4 37 -15z m-702
-34 c2 -23 0 -32 -9 -29 -20 7 -33 34 -26 52 11 27 32 13 35 -23z m103 -30
c11 -27 -6 -19 -22 11 -8 16 -8 19 2 16 6 -2 16 -14 20 -27z m662 -28 c15 -13
21 -15 24 -5 3 7 24 12 56 12 36 0 48 -3 37 -10 -12 -7 -7 -12 23 -25 38 -16
51 -45 20 -45 -10 -1 -31 -7 -48 -15 l-30 -13 38 5 c40 6 47 -2 20 -23 -16
-12 -12 -13 31 -14 l49 0 -5 -43 c-4 -33 -2 -44 9 -44 18 0 27 41 14 65 -7 14
-8 23 -1 27 5 3 10 -2 10 -12 0 -10 7 -31 15 -47 8 -15 15 -36 15 -46 0 -18
56 -106 95 -150 13 -14 47 -52 76 -85 29 -33 64 -72 78 -87 13 -15 22 -30 19
-33 -10 -10 -152 130 -189 187 -20 31 -39 55 -41 53 -3 -3 -5 1 -5 8 0 6 -14
40 -30 75 -28 61 -30 62 -40 39 -9 -19 -21 -26 -55 -30 -110 -13 -195 -26
-210 -32 -13 -5 -18 -2 -18 9 0 9 -4 16 -10 16 -17 0 -33 41 -21 53 22 22 10
29 -34 23 -41 -7 -45 -5 -45 14 0 28 28 37 45 14 14 -18 14 -17 15 9 0 15 5
27 10 27 6 0 10 9 10 20 0 18 -3 19 -20 10 -27 -15 -43 -3 -36 26 5 18 3 22
-9 18 -20 -8 -19 10 1 30 14 14 19 13 55 -9 30 -20 39 -22 39 -10 0 8 4 15 9
15 5 0 7 9 4 20 -7 25 4 26 30 3z m224 -5 c-3 -8 -6 -5 -6 6 -1 11 2 17 5 13
3 -3 4 -12 1 -19z m1203 -8 c0 -4 -3 -9 -6 -13 -9 -9 -55 23 -49 34 6 9 55
-10 55 -21z m-120 10 c0 -5 -4 -10 -10 -10 -5 0 -10 5 -10 10 0 6 5 10 10 10
6 0 10 -4 10 -10z m30 -20 c0 -5 -2 -10 -4 -10 -3 0 -8 5 -11 10 -3 6 -1 10 4
10 6 0 11 -4 11 -10z m185 0 c3 -5 1 -10 -4 -10 -6 0 -11 5 -11 10 0 6 2 10 4
10 3 0 8 -4 11 -10z m137 -12 c-10 -10 -44 0 -37 12 3 5 14 6 26 3 12 -3 17
-9 11 -15z m-1412 -29 c0 -4 -4 -10 -10 -14 -5 -3 -6 -13 -3 -23 3 -9 2 -13
-2 -9 -5 4 -10 26 -10 48 -1 36 0 39 12 23 7 -10 13 -21 13 -25z m-1042 -7 c2
-7 -2 -10 -12 -6 -9 3 -16 11 -16 16 0 13 23 5 28 -10z m210 -26 c3 -14 -2
-17 -24 -14 -32 4 -43 24 -17 31 27 7 38 2 41 -17z m1982 -12 c0 -8 -4 -12
-10 -9 -5 3 -10 10 -10 16 0 5 5 9 10 9 6 0 10 -7 10 -16z m37 -46 c-3 -8 -6
-5 -6 6 -1 11 2 17 5 13 3 -3 4 -12 1 -19z m-1153 -14 c3 -8 2 -12 -4 -9 -6 3
-10 10 -10 16 0 14 7 11 14 -7z m1126 1 c0 -8 -4 -15 -10 -15 -5 0 -10 7 -10
15 0 8 5 15 10 15 6 0 10 -7 10 -15z m-1585 -15 c3 -5 -1 -10 -9 -10 -9 0 -16
5 -16 10 0 6 4 10 9 10 6 0 13 -4 16 -10z m1595 -41 c0 -4 8 -6 18 -2 10 3 4
-6 -13 -22 l-30 -27 -6 24 c-3 13 -4 28 -1 35 4 13 32 6 32 -8z m-74 -56 c-10
-10 -19 5 -10 18 6 11 8 11 12 0 2 -7 1 -15 -2 -18z m167 2 c-7 -21 -13 -19
-13 6 0 11 4 18 10 14 5 -3 7 -12 3 -20z m-83 -5 c0 -5 -5 -10 -11 -10 -5 0
-7 5 -4 10 3 6 8 10 11 10 2 0 4 -4 4 -10z m-1033 -15 c-4 -8 -1 -25 6 -37 18
-33 66 -82 74 -75 9 10 33 -13 33 -32 0 -15 39 -44 83 -63 23 -10 22 -15 -4
-13 -12 1 -27 9 -34 18 -7 9 -16 17 -20 17 -12 0 -118 101 -148 142 -26 34
-27 43 -4 39 4 0 7 4 7 9 0 6 3 10 6 10 3 0 4 -7 1 -15z m1061 -17 c-9 -13
-24 -24 -34 -26 -14 -2 -12 3 11 23 37 31 42 31 23 3z m-1587 2 c26 -14 24
-30 -4 -30 -23 0 -47 17 -47 32 0 11 28 10 51 -2z m1386 -106 c-3 -3 -12 -4
-19 -1 -8 3 -5 6 6 6 11 1 17 -2 13 -5z m108 -4 c3 -5 -1 -10 -10 -10 -9 0
-13 5 -10 10 3 6 8 10 10 10 2 0 7 -4 10 -10z m-1125 -15 c0 -2 -13 -11 -30
-20 -16 -9 -30 -12 -30 -7 0 5 10 14 23 20 25 12 37 14 37 7z m345 -33 c-6 -7
-45 9 -45 18 0 4 11 3 24 -3 14 -7 23 -13 21 -15z m690 8 c-3 -5 -13 -10 -21
-10 -8 0 -14 5 -14 10 0 6 9 10 21 10 11 0 17 -4 14 -10z m85 -20 c0 -5 -4
-10 -10 -10 -5 0 -10 5 -10 10 0 6 5 10 10 10 6 0 10 -4 10 -10z m-100 -40 c0
-5 -5 -10 -11 -10 -5 0 -7 5 -4 10 3 6 8 10 11 10 2 0 4 -4 4 -10z m105 0 c-3
-5 -12 -10 -18 -10 -7 0 -6 4 3 10 19 12 23 12 15 0z m-615 -76 c41 -22 94
-47 117 -56 23 -10 44 -25 47 -35 5 -15 18 -18 78 -19 48 -1 75 -6 82 -15 7
-9 27 -14 51 -13 22 1 34 0 28 -3 -10 -3 -9 -11 2 -34 12 -22 23 -29 44 -29
43 0 91 11 91 22 0 5 -4 6 -10 3 -15 -9 -12 9 6 31 8 10 13 14 9 7 -3 -8 9
-16 37 -23 l42 -12 -23 -18 c-20 -15 -23 -23 -17 -54 7 -35 6 -37 -13 -31 -15
4 -27 -2 -48 -25 -30 -35 -13 -33 -188 -15 -16 2 -52 8 -78 14 -27 6 -53 9
-58 6 -5 -4 -9 -1 -9 4 0 6 -9 11 -21 11 -11 0 -49 20 -83 45 -35 25 -73 45
-85 45 -13 0 -19 4 -16 10 4 6 -9 17 -29 25 -34 15 -86 56 -86 69 0 4 13 -2
30 -14 16 -12 35 -18 41 -14 7 4 9 3 6 -3 -6 -10 32 -27 41 -18 7 6 -50 55
-64 55 -22 0 -44 57 -34 90 12 41 21 54 29 42 3 -5 40 -27 81 -48z m595 -15
c-3 -5 0 -6 8 -3 17 6 47 -21 47 -42 0 -8 -5 -14 -11 -14 -5 0 -7 -4 -4 -10 8
-13 -25 -13 -45 0 -8 5 -12 10 -8 10 4 0 3 14 -2 31 -10 34 -5 53 11 43 5 -3
7 -10 4 -15z m-1016 -95 c1 -30 -4 -35 -61 -61 -4 -2 -14 10 -23 26 -14 28
-14 31 7 45 28 20 32 21 -110 -9 -142 -29 -270 -32 -375 -9 -40 9 -76 20 -81
24 -4 4 66 6 155 3 183 -6 286 4 399 40 l75 23 6 -25 c4 -15 7 -40 8 -57z
m780 31 c36 -8 86 -19 111 -25 44 -9 44 -9 -15 -5 -33 2 -72 8 -87 14 -14 5
-28 7 -31 5 -3 -3 -18 1 -34 10 -36 19 -27 20 56 1z m-1448 -8 c-5 -5 -17 -5
-28 2 -16 9 -15 10 9 9 16 -2 24 -6 19 -11z m934 -28 c3 -13 7 -37 11 -52 6
-27 5 -28 -15 -15 -12 7 -17 16 -12 21 5 5 7 26 4 46 -6 39 5 39 12 0z m380
21 c3 -6 -1 -7 -9 -4 -18 7 -21 14 -7 14 6 0 13 -4 16 -10z m345 -20 c8 -5 11
-10 5 -10 -5 0 -17 5 -25 10 -8 5 -10 10 -5 10 6 0 17 -5 25 -10z m990 -28
c-1 -9 -9 -32 -18 -49 -16 -31 -18 -32 -29 -13 -8 12 -9 21 -3 25 6 3 10 -2
10 -12 0 -15 2 -16 10 -3 5 8 7 25 4 37 -7 25 3 46 17 38 5 -4 9 -14 9 -23z
m-707 -9 c-7 -2 -19 -2 -25 0 -7 3 -2 5 12 5 14 0 19 -2 13 -5z m-77 -80 c17
-17 23 -28 15 -31 -13 -4 -61 35 -61 50 0 16 19 8 46 -19z m-1183 -11 c-2 -10
0 -61 6 -113 7 -61 7 -97 1 -103 -7 -7 -10 -1 -11 14 -1 22 -2 22 -8 -5 -4
-16 -3 -52 1 -80 8 -52 -5 -84 -19 -49 -13 31 -9 182 5 196 7 7 12 40 12 85 0
40 4 73 9 73 5 0 7 -8 4 -18z m1435 -44 c-10 -6 -8 -8 5 -8 9 0 17 -4 17 -10
0 -20 -38 -10 -44 13 -11 43 -8 52 14 32 16 -14 17 -20 8 -27z m561 -15 c-10
-31 -19 -63 -19 -71 0 -22 -32 -92 -42 -92 -11 0 0 45 23 98 11 24 23 58 26
75 5 26 18 46 30 47 1 0 -7 -25 -18 -57z m-1959 -10 c0 -16 3 -39 6 -53 5 -17
3 -22 -4 -15 -12 12 -21 95 -10 95 5 0 8 -12 8 -27z m590 -13 c0 -5 -4 -10 -9
-10 -6 0 -13 5 -16 10 -3 6 1 10 9 10 9 0 16 -4 16 -10z m823 -7 c-7 -2 -19
-2 -25 0 -7 3 -2 5 12 5 14 0 19 -2 13 -5z m87 -12 c0 -13 -7 -18 -25 -18 -24
0 -33 16 -18 30 14 15 43 7 43 -12z m-910 -27 c0 -14 -4 -23 -10 -19 -5 3 -10
15 -10 26 0 10 5 19 10 19 6 0 10 -12 10 -26z m1263 -66 c-5 -7 -10 -26 -11
-41 -1 -16 -9 -44 -18 -62 -9 -19 -13 -43 -10 -53 8 -24 -10 -69 -38 -97 -18
-17 -19 -17 -13 -1 15 38 57 191 57 206 0 16 27 60 37 60 3 0 1 -6 -4 -12z
m35 -98 c-7 -10 -14 -17 -17 -15 -4 4 18 35 25 35 2 0 -1 -9 -8 -20z m-1888
-94 c0 -35 3 -73 7 -83 4 -10 -5 -4 -20 13 -37 43 -37 134 -1 134 11 0 14 -16
14 -64z m1855 -129 c-15 -23 -15 -26 0 -34 21 -12 9 -42 -21 -54 -13 -4 -24
-13 -24 -18 0 -6 8 -8 18 -4 15 6 15 4 -3 -16 l-19 -22 -9 23 c-9 23 -9 23
-25 -9 -15 -33 -32 -44 -32 -22 0 6 18 29 40 50 38 37 52 58 30 44 -25 -16 -4
51 28 88 23 26 37 5 17 -26z m-1882 -25 c-3 -26 -10 -56 -16 -67 -10 -19 -10
-19 -18 0 -8 22 -1 65 12 80 5 5 9 17 9 28 0 10 4 15 10 12 5 -3 7 -26 3 -53z
m31 32 c3 -8 2 -12 -4 -9 -6 3 -10 10 -10 16 0 14 7 11 14 -7z m130 -29 c3 -8
1 -15 -4 -15 -6 0 -10 7 -10 15 0 8 2 15 4 15 2 0 6 -7 10 -15z m-99 -6 c12
-19 -5 -23 -22 -6 -16 16 -16 17 -1 17 9 0 20 -5 23 -11z m-797 -101 c16 -16
15 -48 -2 -48 -7 0 -16 8 -20 18 -3 9 -9 23 -12 30 -7 15 18 16 34 0z m722
-14 c0 -8 -4 -12 -10 -9 -5 3 -10 13 -10 21 0 8 5 12 10 9 6 -3 10 -13 10 -21z
m107 -6 c-4 -12 2 -26 14 -36 18 -16 26 -42 12 -42 -3 0 -15 7 -25 17 -20 18
-27 100 -7 87 6 -3 8 -15 6 -26z m68 -8 c14 -26 14 -29 0 -24 -14 6 -35 34
-35 48 0 17 22 2 35 -24z m-985 5 c0 -8 -7 -15 -15 -15 -16 0 -20 12 -8 23 11
12 23 8 23 -8z m839 -62 c1 -13 -3 -23 -8 -23 -14 0 -23 37 -15 63 7 21 7 21
15 2 4 -11 8 -30 8 -42z m221 37 c0 -5 -2 -10 -4 -10 -3 0 -8 5 -11 10 -3 6
-1 10 4 10 6 0 11 -4 11 -10z m-1265 -55 c0 -26 -21 -30 -28 -6 -2 11 -2 22 1
26 11 10 27 -2 27 -20z m2660 16 c-15 -14 -136 -61 -158 -61 -30 0 -13 12 61
42 67 27 115 36 97 19z m-1435 -56 c12 -19 19 -43 17 -52 -3 -14 -8 -10 -18
15 -7 17 -19 32 -26 32 -19 0 -27 21 -12 31 8 5 15 9 16 9 1 0 11 -16 23 -35z
m1480 25 c0 -5 -4 -10 -10 -10 -5 0 -10 5 -10 10 0 6 5 10 10 10 6 0 10 -4 10
-10z m-50 -9 c0 -5 -7 -14 -15 -21 -16 -14 -18 -10 -9 14 6 17 24 22 24 7z
m-2487 -44 c19 -37 19 -37 -5 -57 -29 -24 -40 -25 -36 -2 1 10 -5 31 -15 46
-23 34 -15 59 15 54 15 -2 30 -16 41 -41z m2437 24 c0 -5 -7 -11 -15 -15 -9
-3 -15 0 -15 9 0 8 7 15 15 15 8 0 15 -4 15 -9z m-130 -11 c0 -5 -2 -10 -4
-10 -3 0 -8 5 -11 10 -3 6 -1 10 4 10 6 0 11 -4 11 -10z m54 -8 c2 -4 -4 -13
-15 -20 -21 -13 -22 -12 -13 12 7 17 20 21 28 8z m226 -21 c0 -5 -7 -14 -15
-21 -16 -14 -18 -10 -9 14 6 17 24 22 24 7z m-295 -11 c3 -5 1 -10 -4 -10 -6
0 -11 5 -11 10 0 6 2 10 4 10 3 0 8 -4 11 -10z m315 -5 c0 -8 -4 -15 -10 -15
-5 0 -7 7 -4 15 4 8 8 15 10 15 2 0 4 -7 4 -15z m-199 -22 c-8 -15 -10 -15
-11 -2 0 17 10 32 18 25 2 -3 -1 -13 -7 -23z m-2481 -39 c0 -8 -9 -14 -20 -14
-18 0 -19 3 -10 20 12 22 30 18 30 -6z m950 -35 c-21 -39 -33 -46 -59 -30 -11
7 -9 10 8 16 12 3 28 20 37 36 8 16 19 27 24 24 6 -4 1 -23 -10 -46z m1594
-16 c-30 -22 -39 -15 -13 13 15 16 25 21 28 13 2 -7 -4 -18 -15 -26z m-1424
-30 c0 -12 -5 -23 -10 -23 -11 0 -14 7 -25 55 -6 29 -6 29 14 11 12 -11 21
-30 21 -43z m1390 3 c0 -3 -4 -8 -10 -11 -5 -3 -10 -1 -10 4 0 6 5 11 10 11 6
0 10 -2 10 -4z m80 -9 c0 -11 -39 -47 -51 -47 -8 0 -1 11 15 25 28 24 36 29
36 22z m-1440 -43 c0 -9 -5 -14 -12 -12 -18 6 -21 28 -4 28 9 0 16 -7 16 -16z
m885 -2 c-3 -3 -11 0 -18 7 -9 10 -8 11 6 5 10 -3 15 -9 12 -12z m-1495 -12
c6 -11 8 -20 5 -20 -3 0 -15 9 -27 20 -18 17 -19 20 -5 20 9 0 21 -9 27 -20z
m-320 -15 c28 -30 22 -39 -19 -30 -35 7 -45 19 -37 40 8 22 30 18 56 -10z
m526 -10 c11 -27 -2 -37 -14 -11 -7 16 -8 26 -1 26 5 0 12 -7 15 -15z m404 0
c0 8 5 15 10 15 6 0 10 -7 10 -15 0 -8 6 -12 14 -9 15 6 31 -39 21 -56 -4 -6
3 -10 14 -10 16 0 21 -6 21 -25 0 -18 -5 -25 -20 -25 -11 0 -20 4 -20 9 0 5
-15 15 -33 22 -37 13 -82 73 -73 96 6 13 9 13 31 -1 22 -14 25 -15 25 -1z
m1129 -38 c-24 -10 -24 -11 -2 -14 12 -2 39 0 59 6 21 6 40 9 42 6 2 -2 -16
-9 -40 -15 -23 -7 -53 -16 -65 -21 -13 -5 -32 -5 -45 1 l-23 9 23 7 c13 4 21
12 18 20 -3 8 4 14 17 16 33 6 44 -4 16 -15z m-49 3 c0 -5 -10 -10 -22 -10
-19 0 -20 2 -8 10 19 13 30 13 30 0z m-1577 -117 c22 -63 22 -96 -3 -118 -19
-17 -22 -17 -37 -3 -14 15 -13 19 11 43 31 31 33 45 6 45 -20 0 -27 14 -11 24
4 3 6 17 3 31 -8 43 13 28 31 -22z m1687 33 c0 -2 -7 -7 -16 -10 -8 -3 -12 -2
-9 4 6 10 25 14 25 6z m-2015 -36 c-3 -5 -10 -10 -16 -10 -5 0 -9 5 -9 10 0 6
7 10 16 10 8 0 12 -4 9 -10z m929 -35 c3 -8 11 -15 18 -15 7 0 29 -14 48 -31
38 -34 109 -72 153 -83 28 -7 38 -26 13 -26 -25 0 -108 40 -141 68 -62 52 -71
58 -83 54 -7 -2 -15 3 -18 12 -3 9 -12 16 -20 16 -8 0 -14 5 -14 10 0 16 37
12 44 -5z m133 -139 c56 -28 82 -53 42 -41 -35 11 -121 64 -146 92 -38 40 -26
50 15 11 20 -20 60 -48 89 -62z m833 84 c0 -5 -4 -10 -10 -10 -5 0 -10 5 -10
10 0 6 5 10 10 10 6 0 10 -4 10 -10z m-1810 -14 c0 -16 -18 -31 -27 -22 -8 8
5 36 17 36 5 0 10 -6 10 -14z m100 -36 c0 -5 -7 -10 -16 -10 -8 0 -12 5 -9 10
3 6 10 10 16 10 5 0 9 -4 9 -10z m1122 -7 c3 -13 -2 -19 -16 -20 -12 -1 -36
-5 -55 -9 -48 -10 -37 16 15 32 53 16 51 16 56 -3z m303 -23 c-3 -5 -12 -7
-20 -3 -21 7 -19 13 6 13 11 0 18 -4 14 -10z m-1350 -40 c3 -6 -1 -7 -9 -4
-18 7 -21 14 -7 14 6 0 13 -4 16 -10z m1212 -11 c65 -9 115 -10 175 -3 80 9
84 8 74 -8 -14 -24 -58 -38 -137 -45 -76 -7 -146 12 -200 54 -19 14 -27 23
-19 20 9 -2 57 -11 107 -18z m-1223 -30 c-6 -11 -24 -2 -24 11 0 5 7 7 15 4 8
-4 12 -10 9 -15z m981 11 c3 -5 -1 -10 -9 -10 -9 0 -16 5 -16 10 0 6 4 10 9
10 6 0 13 -4 16 -10z m888 -177 c-4 -10 -9 -11 -16 -4 -5 5 -7 18 -3 28 6 14
9 15 16 4 4 -8 6 -21 3 -28z m44 21 c-3 -3 -12 -4 -19 -1 -8 3 -5 6 6 6 11 1
17 -2 13 -5z m-1377 -56 c0 -4 -13 -8 -30 -8 -33 0 -35 2 -19 31 10 20 11 20
30 3 10 -9 19 -21 19 -26z m605 -18 c3 -5 13 -7 23 -4 16 5 16 5 0 -6 -10 -6
-18 -23 -18 -38 0 -19 -3 -23 -9 -14 -4 8 -8 23 -7 35 1 12 -3 25 -9 29 -6 5
-6 8 2 8 6 0 14 -4 18 -10z m772 -52 c-3 -8 -6 -5 -6 6 -1 11 2 17 5 13 3 -3
4 -12 1 -19z m-1262 -18 c-3 -5 -10 -10 -16 -10 -5 0 -9 5 -9 10 0 6 7 10 16
10 8 0 12 -4 9 -10z"/>
<path d="M5010 2516 c0 -9 7 -16 16 -16 17 0 14 22 -4 28 -7 2 -12 -3 -12 -12z"/>
<path d="M5227 2466 c-3 -8 -16 -16 -28 -18 -32 -4 -37 -28 -6 -28 24 0 57 27
57 48 0 17 -17 15 -23 -2z"/>
<path d="M5805 1930 c10 -11 20 -18 23 -15 7 6 -18 35 -31 35 -5 0 -2 -9 8
-20z"/>
<path d="M6140 1865 c0 -8 6 -15 13 -15 6 0 23 -3 36 -7 21 -5 22 -4 12 16
-14 25 -61 30 -61 6z"/>
<path d="M6030 1856 c0 -8 9 -18 21 -21 15 -5 20 -13 17 -30 -3 -13 3 -33 13
-46 l19 -24 0 33 c0 17 -4 32 -10 32 -5 0 -7 7 -3 16 4 10 -1 17 -16 21 -11 3
-21 12 -21 19 0 8 -4 14 -10 14 -5 0 -10 -6 -10 -14z"/>
<path d="M6180 1821 c0 -5 5 -13 10 -16 6 -3 10 -2 10 4 0 5 -4 13 -10 16 -5
3 -10 2 -10 -4z"/>
<path d="M6100 1811 c0 -6 5 -13 10 -16 6 -3 10 1 10 9 0 9 -4 16 -10 16 -5 0
-10 -4 -10 -9z"/>
<path d="M6017 1793 c-4 -3 -7 -13 -7 -22 1 -13 3 -13 11 2 11 19 8 33 -4 20z"/>
<path d="M5640 675 c0 -8 2 -15 4 -15 2 0 6 7 10 15 3 8 1 15 -4 15 -6 0 -10
-7 -10 -15z"/>
<path d="M4837 4073 c-15 -14 -7 -43 12 -43 38 0 51 10 40 31 -9 19 -39 26
-52 12z"/>
<path d="M4348 4043 c-10 -2 -18 -14 -18 -26 0 -16 -3 -18 -12 -9 -16 16 -29
15 -22 -2 3 -8 17 -17 30 -20 19 -5 32 0 55 24 17 16 26 30 21 30 -6 0 -16 2
-24 4 -7 2 -21 2 -30 -1z"/>
<path d="M5480 4001 c0 -30 -4 -41 -15 -41 -22 0 -18 -17 5 -23 12 -3 21 1 24
12 8 29 5 80 -5 86 -5 4 -9 -12 -9 -34z"/>
<path d="M5527 4033 c-12 -11 -8 -91 5 -99 6 -4 14 -2 16 4 2 7 13 10 28 6 29
-7 43 18 23 43 -11 13 -11 17 -1 20 6 3 12 12 12 21 -1 15 -2 15 -13 2 -17
-21 -71 -25 -63 -5 6 16 3 19 -7 8z"/>
<path d="M5360 4003 c0 -6 -9 -9 -20 -6 -24 6 -28 -22 -5 -31 8 -3 15 -12 15
-21 0 -8 7 -15 16 -15 8 0 12 5 9 10 -3 6 1 10 9 10 9 0 16 5 16 10 0 6 -10
10 -22 10 -18 0 -20 2 -8 10 12 7 12 12 2 22 -8 8 -12 8 -12 1z"/>
<path d="M4250 3973 c0 -10 118 -93 131 -93 4 0 9 12 12 26 3 19 -1 27 -17 34
-11 4 -34 14 -51 21 -39 16 -75 22 -75 12z"/>
<path d="M6890 3930 c8 -5 20 -10 25 -10 6 0 3 5 -5 10 -8 5 -19 10 -25 10 -5
0 -3 -5 5 -10z"/>
<path d="M5285 3920 c4 -6 11 -8 16 -5 14 9 11 15 -7 15 -8 0 -12 -5 -9 -10z"/>
<path d="M5381 3907 c-9 -14 -10 -22 -2 -30 6 -6 11 -7 11 -3 0 5 8 2 17 -5
15 -12 16 -12 10 4 -3 9 -2 17 3 17 18 0 10 28 -8 32 -12 3 -24 -2 -31 -15z"/>
<path d="M6047 3913 c-7 -11 -37 -127 -37 -142 0 -6 3 -11 8 -11 8 0 45 150
38 157 -2 2 -6 1 -9 -4z"/>
<path d="M6806 3901 c10 -10 21 -14 23 -8 4 10 -17 27 -33 27 -5 0 -1 -8 10
-19z"/>
<path d="M6700 3901 c0 -5 7 -12 16 -15 22 -9 24 -8 24 9 0 8 -9 15 -20 15
-11 0 -20 -4 -20 -9z"/>
<path d="M6770 3901 c0 -5 5 -13 10 -16 6 -3 10 -2 10 4 0 5 -4 13 -10 16 -5
3 -10 2 -10 -4z"/>
<path d="M6848 3903 c7 -3 16 -2 19 1 4 3 -2 6 -13 5 -11 0 -14 -3 -6 -6z"/>
<path d="M5794 3885 c-18 -14 -18 -14 4 -8 12 3 22 9 22 14 0 12 -3 11 -26 -6z"/>
<path d="M6587 3893 c-3 -5 6 -9 19 -9 13 -1 21 2 18 7 -6 11 -31 12 -37 2z"/>
<path d="M6954 3892 c4 -7 15 -12 25 -12 9 0 22 -5 29 -12 9 -9 12 -8 12 5 0
9 -6 17 -12 17 -7 0 -24 3 -37 7 -17 4 -22 3 -17 -5z"/>
<path d="M5750 3860 c-9 -6 -10 -10 -3 -10 6 0 15 5 18 10 8 12 4 12 -15 0z"/>
<path d="M5627 3841 c-3 -12 -20 -24 -46 -32 -22 -7 -41 -16 -41 -21 0 -4 -6
-8 -12 -8 -7 -1 -26 -7 -43 -15 -36 -18 -14 -14 81 14 39 11 71 26 71 33 0 7
4 21 8 31 4 9 3 17 -3 17 -5 0 -12 -9 -15 -19z"/>
<path d="M5000 3835 c0 -3 9 -14 20 -25 24 -24 26 -42 5 -34 -9 4 -15 0 -15
-10 0 -9 -8 -16 -20 -16 -11 0 -20 -4 -20 -9 0 -11 82 -19 131 -13 30 3 37 8
37 27 0 18 -10 27 -43 40 -24 9 -49 23 -55 31 -12 13 -40 20 -40 9z"/>
<path d="M4935 3820 c3 -5 11 -10 16 -10 6 0 7 5 4 10 -3 6 -11 10 -16 10 -6
0 -7 -4 -4 -10z"/>
<path d="M5550 3820 c0 -5 4 -10 9 -10 6 0 13 5 16 10 3 6 -1 10 -9 10 -9 0
-16 -4 -16 -10z"/>
<path d="M5885 3765 c-22 -19 -50 -35 -62 -35 -12 0 -25 -5 -29 -11 -5 -8 6
-9 37 -4 31 5 52 17 72 38 23 26 35 48 25 47 -2 -1 -21 -16 -43 -35z"/>
<path d="M7060 3796 c0 -2 8 -10 18 -17 15 -13 16 -12 3 4 -13 16 -21 21 -21
13z"/>
<path d="M5188 3748 c6 -6 18 -8 28 -6 14 3 12 5 -9 10 -19 3 -25 2 -19 -4z"/>
<path d="M5929 3658 c-1 -7 -2 -22 -3 -32 -1 -11 -7 -21 -15 -24 -9 -3 -11 0
-6 7 5 9 1 9 -14 -1 -27 -16 -27 -45 -1 -53 23 -7 50 10 50 31 0 7 8 18 18 23
9 6 13 11 8 11 -5 0 -1 9 9 20 22 24 13 26 -22 3 -25 -17 -25 -17 -19 5 4 12
5 22 2 22 -3 0 -7 -6 -7 -12z"/>
<path d="M5865 3540 c3 -5 10 -10 16 -10 5 0 9 5 9 10 0 6 -7 10 -16 10 -8 0
-12 -4 -9 -10z"/>
<path d="M5885 3509 c-4 -6 -4 -13 -1 -16 3 -4 6 -1 6 5 0 6 7 9 17 5 11 -4
14 -3 9 5 -9 15 -23 15 -31 1z"/>
<path d="M6900 3395 c-6 -8 -8 -20 -4 -26 4 -7 3 -9 -3 -6 -6 4 -26 -7 -44
-24 -30 -27 -31 -30 -10 -24 18 6 23 4 19 -6 -17 -45 -20 -61 -9 -55 6 4 11
12 11 18 0 6 11 25 24 42 12 17 25 46 28 64 5 37 5 37 -12 17z"/>
<path d="M5656 3364 c-4 -10 -1 -14 6 -12 15 5 23 28 10 28 -5 0 -13 -7 -16
-16z"/>
<path d="M5573 3297 c-23 -17 -44 -40 -46 -49 -3 -10 -16 -22 -29 -27 -24 -9
-57 -41 -42 -41 4 0 -5 -13 -20 -29 -16 -16 -26 -33 -23 -38 7 -12 -3 -27 -28
-41 -11 -6 -14 -12 -7 -12 16 0 15 -19 -3 -53 -10 -20 -11 -27 -3 -25 17 6 88
140 83 156 -3 6 37 53 88 102 93 91 107 117 30 57z"/>
<path d="M5590 3254 c-41 -36 -81 -77 -88 -90 -9 -16 -19 -23 -28 -20 -9 3
-12 2 -8 -5 3 -6 -8 -37 -26 -70 -17 -32 -29 -59 -25 -59 9 0 57 31 82 53 12
11 19 26 16 36 -4 13 -3 14 6 1 8 -12 11 -12 17 5 7 18 8 18 15 -1 4 -12 1
-26 -9 -37 -15 -16 -14 -17 1 -11 17 6 21 16 18 42 -1 6 5 12 14 12 8 0 15 5
15 11 0 6 9 8 22 3 20 -6 21 -5 10 9 -11 13 -7 21 28 57 43 44 48 52 26 44 -8
-3 -23 0 -33 6 -15 9 -15 11 -1 6 9 -3 19 2 23 12 11 25 15 62 7 62 -4 0 -41
-30 -82 -66z m-27 -94 c-5 -19 -23 -39 -23 -25 0 9 20 45 24 45 2 0 2 -9 -1
-20z"/>
<path d="M6384 3295 c8 -8 18 -15 22 -15 3 0 1 7 -6 15 -7 8 -17 15 -22 15 -5
0 -3 -7 6 -15z"/>
<path d="M6787 3241 c-4 -17 -3 -21 5 -13 5 5 8 16 6 23 -3 8 -7 3 -11 -10z"/>
<path d="M6707 3164 c-10 -13 -14 -24 -9 -24 13 0 35 27 30 39 -1 5 -11 -2
-21 -15z"/>
<path d="M6700 3120 c-14 -10 -22 -22 -18 -25 9 -9 48 17 48 32 0 16 0 16 -30
-7z"/>
<path d="M3405 3070 c-3 -5 3 -10 14 -10 12 0 21 5 21 10 0 6 -6 10 -14 10 -8
0 -18 -4 -21 -10z"/>
<path d="M6670 3074 c0 -3 7 -19 16 -37 l17 -32 -25 22 c-13 12 -35 24 -48 25
-14 2 -28 7 -32 13 -4 5 -10 6 -15 2 -14 -15 37 -95 65 -102 15 -4 29 -10 32
-15 3 -5 18 -11 33 -14 27 -5 27 -4 27 48 0 41 -5 57 -20 71 -20 18 -50 29
-50 19z"/>
<path d="M6400 3029 c0 -18 2 -19 15 -9 8 7 15 16 15 21 0 5 -7 9 -15 9 -9 0
-15 -9 -15 -21z"/>
<path d="M5502 3031 c-10 -6 -10 -10 3 -21 13 -11 15 -9 15 9 0 24 0 24 -18
12z"/>
<path d="M6953 3016 c-15 -13 -26 -27 -23 -30 3 -2 21 8 39 25 19 16 29 29 23
29 -6 0 -24 -11 -39 -24z"/>
<path d="M5730 3012 c-21 -10 -26 -52 -6 -52 8 0 18 5 21 10 3 6 1 10 -4 10
-6 0 -11 5 -11 11 0 6 9 8 20 4 15 -5 18 -3 14 9 -7 17 -11 18 -34 8z"/>
<path d="M6406 2974 c-19 -19 -19 -22 -1 -54 l13 -25 7 30 c4 17 9 38 12 48 6
21 -10 22 -31 1z"/>
<path d="M6558 2953 c-2 -19 0 -36 4 -39 4 -3 8 3 8 13 0 10 9 24 21 31 23 15
19 25 -10 27 -15 1 -20 -7 -23 -32z"/>
<path d="M2965 2960 c3 -5 11 -10 16 -10 6 0 7 5 4 10 -3 6 -11 10 -16 10 -6
0 -7 -4 -4 -10z"/>
<path d="M6905 2960 c-8 -13 4 -32 16 -25 12 8 12 35 0 35 -6 0 -13 -4 -16
-10z"/>
<path d="M5622 2943 c-8 -8 -11 -20 -9 -27 6 -16 59 -28 71 -16 11 11 -1 43
-14 35 -5 -3 -10 -2 -10 3 0 17 -25 20 -38 5z"/>
<path d="M5923 2938 c-13 -6 -23 -15 -23 -20 0 -5 11 -1 25 8 37 24 35 30 -2
12z"/>
<path d="M6583 2908 c1 -15 6 -23 11 -18 4 4 4 16 -2 26 -9 16 -10 14 -9 -8z"/>
<path d="M6380 2895 c0 -8 7 -15 16 -15 14 0 14 3 4 15 -7 8 -14 15 -16 15 -2
0 -4 -7 -4 -15z"/>
<path d="M5557 2873 c-4 -3 -7 -11 -7 -17 0 -6 5 -4 10 4 9 13 11 13 20 0 8
-13 10 -12 10 3 0 17 -20 23 -33 10z"/>
<path d="M6322 2866 c7 -8 15 -12 17 -11 5 6 -10 25 -20 25 -5 0 -4 -6 3 -14z"/>
<path d="M5300 2770 c-9 -6 -10 -10 -3 -10 6 0 15 5 18 10 8 12 4 12 -15 0z"/>
<path d="M2567 2741 c-8 -38 3 -62 36 -83 12 -9 31 -35 41 -59 65 -155 67
-159 106 -185 19 -13 38 -24 43 -24 10 0 -3 52 -18 70 -7 8 -28 44 -47 80 -19
36 -57 96 -84 134 -27 38 -54 75 -60 84 -9 12 -12 9 -17 -17z"/>
<path d="M6062 2713 c-40 -45 -46 -59 -43 -93 2 -13 1 -13 -8 0 -5 8 -12 12
-13 10 -23 -30 -39 -65 -32 -67 6 -2 8 -19 6 -38 -3 -22 0 -35 7 -35 7 0 10 4
7 9 -3 5 2 8 11 7 17 -1 34 48 34 98 0 11 9 31 21 45 13 16 19 19 15 8 -5 -12
-3 -16 4 -11 6 4 15 0 20 -7 6 -10 9 -7 9 12 0 14 4 29 9 35 15 15 18 74 3 74
-4 0 -26 -21 -50 -47z"/>
<path d="M5290 2739 c0 -5 5 -7 10 -4 6 3 10 8 10 11 0 2 -4 4 -10 4 -5 0 -10
-5 -10 -11z"/>
<path d="M5396 2588 c8 -59 24 -99 37 -91 5 3 7 2 4 -4 -4 -6 8 -32 26 -59
l32 -49 3 33 c2 18 -2 40 -9 48 -10 13 -10 17 2 25 10 6 15 3 17 -11 2 -11 7
-18 12 -15 4 3 6 14 3 25 -4 14 0 20 11 20 9 0 16 8 15 18 0 10 -3 12 -6 4 -2
-6 -9 -10 -14 -6 -5 3 -9 0 -9 -5 0 -6 -4 -11 -9 -11 -16 0 -18 43 -3 73 7 16
12 30 10 32 -2 1 -31 5 -66 9 l-62 7 6 -43z"/>
<path d="M6791 2604 c0 -11 3 -14 6 -6 3 7 2 16 -1 19 -3 4 -6 -2 -5 -13z"/>
<path d="M5648 2603 c7 -3 16 -2 19 1 4 3 -2 6 -13 5 -11 0 -14 -3 -6 -6z"/>
<path d="M5599 2551 c7 -12 10 -37 7 -54 l-6 -32 13 28 c15 31 27 26 27 -12 0
-21 -2 -23 -10 -11 -8 13 -10 13 -10 -2 0 -9 6 -18 13 -21 9 -3 8 -8 -3 -22
-9 -11 -10 -16 -2 -11 7 4 12 1 12 -8 0 -9 7 -16 16 -16 10 0 14 -6 10 -15 -3
-10 1 -15 13 -15 10 0 38 -16 62 -35 47 -37 69 -44 69 -21 0 8 6 21 13 28 6 7
13 27 14 45 2 24 -1 31 -12 26 -11 -4 -15 2 -14 18 0 13 3 18 6 11 2 -6 8 -10
12 -7 4 2 23 -8 41 -24 l34 -28 -27 -27 c-32 -32 -36 -47 -5 -20 21 19 21 19
14 -1 -5 -11 -12 -32 -16 -47 -8 -26 -7 -27 12 -17 12 6 32 23 46 38 24 26 24
26 3 29 -23 4 -28 17 -10 28 6 3 9 14 6 23 -2 10 2 26 9 36 21 28 17 63 -8 76
-13 7 -24 11 -26 10 -1 -1 -19 3 -40 9 -59 16 -75 14 -62 -10 9 -16 8 -18 -5
-14 -11 5 -15 -1 -15 -20 0 -32 -14 -35 -17 -3 -2 22 -5 34 -18 74 -8 26 -35
39 -35 18 0 -9 -4 -23 -9 -33 -17 -33 -29 -67 -36 -96 -5 -23 -8 -27 -15 -15
-5 7 -5 15 -1 17 5 2 7 11 4 21 -3 10 0 35 6 56 8 30 7 36 -4 31 -8 -3 -26 5
-41 16 l-27 21 12 -22z m136 -120 c-10 -16 -25 -3 -25 22 0 20 1 20 16 5 9 -9
13 -21 9 -27z"/>
<path d="M3252 2447 c-23 -24 -29 -47 -13 -47 15 0 79 29 86 39 5 10 -24 31
-43 31 -5 0 -18 -10 -30 -23z"/>
<path d="M5550 2463 c0 -6 -3 -18 -6 -27 -3 -9 -2 -16 4 -16 15 0 21 25 11 41
-5 9 -9 9 -9 2z"/>
<path d="M5433 2424 c0 -16 13 -19 21 -5 3 5 0 11 -7 14 -8 3 -14 -1 -14 -9z"/>
<path d="M7402 2409 c2 -7 10 -15 17 -17 8 -3 12 1 9 9 -2 7 -10 15 -17 17 -8
3 -12 -1 -9 -9z"/>
<path d="M5615 2357 c-5 -26 -10 -35 -16 -26 -4 7 -5 17 -3 21 3 4 -2 5 -10 2
-20 -8 -20 -14 2 -30 36 -28 57 -8 43 43 l-8 28 -8 -38z"/>
<path d="M5720 2308 c0 -7 10 -14 21 -15 12 -1 20 -1 18 0 -2 2 -12 9 -21 16
-15 11 -18 11 -18 -1z"/>
<path d="M5820 2310 c0 -5 5 -10 11 -10 5 0 7 5 4 10 -3 6 -8 10 -11 10 -2 0
-4 -4 -4 -10z"/>
<path d="M7350 2309 c0 -5 5 -7 10 -4 6 3 10 8 10 11 0 2 -4 4 -10 4 -5 0 -10
-5 -10 -11z"/>
<path d="M5570 2306 c0 -2 7 -9 15 -16 9 -7 15 -8 15 -2 0 5 -7 12 -15 16 -8
3 -15 4 -15 2z"/>
<path d="M5826 2281 c-4 -7 -5 -15 -2 -18 9 -9 19 4 14 18 -4 11 -6 11 -12 0z"/>
<path d="M5715 2264 c-18 -19 -18 -22 -2 -37 20 -20 40 -14 44 14 4 32 -20 45
-42 23z"/>
<path d="M7484 2204 c-33 -33 -84 -75 -112 -94 -29 -18 -50 -35 -47 -38 6 -6
104 68 163 121 23 22 42 35 42 30 0 -5 -6 -15 -12 -22 -11 -11 -9 -11 9 0 12
7 20 15 18 18 -3 2 -1 9 5 15 5 7 6 16 2 21 -4 6 -34 -17 -68 -51z"/>
<path d="M5660 2231 c0 -5 7 -12 16 -15 14 -5 15 -4 4 9 -14 17 -20 19 -20 6z"/>
<path d="M5790 2215 c0 -8 5 -15 10 -15 6 0 10 7 10 15 0 8 -4 15 -10 15 -5 0
-10 -7 -10 -15z"/>
<path d="M7280 2199 c0 -5 5 -7 10 -4 6 3 10 8 10 11 0 2 -4 4 -10 4 -5 0 -10
-5 -10 -11z"/>
<path d="M7248 2193 c-10 -2 -18 -8 -18 -13 0 -5 7 -6 17 -3 11 4 14 3 9 -5
-4 -7 -2 -12 3 -12 6 0 11 9 11 20 0 11 -1 19 -2 19 -2 -1 -11 -3 -20 -6z"/>
<path d="M5800 2080 c8 -5 20 -10 25 -10 6 0 3 5 -5 10 -8 5 -19 10 -25 10 -5
0 -3 -5 5 -10z"/>
<path d="M5300 2055 c-19 -14 -30 -25 -24 -25 11 0 74 38 74 45 0 11 -18 4
-50 -20z"/>
<path d="M3912 1949 c-6 -15 -17 -29 -24 -32 -10 -4 -9 -6 2 -6 26 -1 42 16
38 40 l-4 24 -12 -26z"/>
<path d="M7184 1925 c-18 -13 -18 -14 4 -8 12 3 25 9 28 14 8 14 -10 11 -32
-6z"/>
<path d="M3987 1614 c-35 -19 -26 -34 22 -34 20 0 42 -5 48 -11 15 -15 43 -4
43 15 0 19 -38 46 -65 46 -11 -1 -33 -8 -48 -16z"/>
<path d="M3892 1348 c-23 -23 -29 -24 -227 -28 -6 0 -6 -3 0 -9 16 -14 125
-28 183 -23 44 3 52 7 48 21 -4 9 2 7 14 -8 24 -27 25 -56 6 -93 -14 -27 -14
-28 8 -28 34 0 44 17 38 66 -3 27 0 50 8 59 10 12 8 19 -11 40 -30 31 -39 31
-67 3z"/>
<path d="M4190 1333 c1 -15 57 -83 64 -76 14 14 5 53 -16 67 -24 17 -48 21
-48 9z"/>
<path d="M7343 1304 c-6 -13 -8 -24 -4 -24 10 0 31 39 23 44 -4 2 -12 -7 -19
-20z"/>
<path d="M4060 1169 c0 -6 -13 -27 -30 -46 -16 -18 -30 -40 -30 -47 0 -8 -11
-21 -25 -30 -40 -26 -20 -36 32 -17 40 15 48 21 45 41 -1 14 8 32 23 46 21 20
24 27 15 44 -12 22 -30 27 -30 9z"/>
<path d="M3725 1090 c-3 -5 -1 -10 4 -10 6 0 11 5 11 10 0 6 -2 10 -4 10 -3 0
-8 -4 -11 -10z"/>
<path d="M3459 1057 c-12 -16 -27 -21 -63 -22 -49 0 -60 -9 -23 -19 47 -12 86
-7 97 15 17 31 8 51 -11 26z"/>
<path d="M4110 984 c0 -8 5 -12 10 -9 6 4 8 11 5 16 -9 14 -15 11 -15 -7z"/>
<path d="M4200 984 c0 -8 5 -12 10 -9 6 3 10 10 10 16 0 5 -4 9 -10 9 -5 0
-10 -7 -10 -16z"/>
<path d="M4174 929 l-19 -22 30 7 c36 9 39 12 30 25 -9 16 -20 13 -41 -10z"/>
<path d="M4087 926 c-3 -8 2 -16 14 -19 21 -6 22 -5 13 17 -8 20 -20 21 -27 2z"/>
<path d="M4310 924 c0 -8 5 -12 10 -9 6 4 8 11 5 16 -9 14 -15 11 -15 -7z"/>
<path d="M4035 721 c-23 -5 -26 -8 -13 -13 19 -8 58 1 58 13 0 10 -1 10 -45 0z"/>
<path d="M3950 610 c19 -13 30 -13 30 0 0 6 -10 10 -22 10 -19 0 -20 -2 -8
-10z"/>
<path d="M7086 564 c-15 -14 -41 -28 -57 -31 -16 -3 -29 -9 -29 -12 0 -11 25
-61 30 -61 5 1 66 80 83 108 15 23 3 21 -27 -4z"/>
<path d="M4344 569 c-4 -7 -21 -9 -43 -6 -33 6 -34 5 -17 -8 32 -24 86 -14 86
17 0 12 -18 10 -26 -3z"/>
<path d="M3718 523 c7 -3 16 -2 19 1 4 3 -2 6 -13 5 -11 0 -14 -3 -6 -6z"/>
<path d="M4656 495 c25 -19 34 -19 34 0 0 10 -10 15 -27 15 -26 0 -26 -1 -7
-15z"/>
<path d="M6700 405 c-10 -13 -9 -15 9 -15 11 0 21 4 21 9 0 18 -18 21 -30 6z"/>
<path d="M7200 239 c0 -5 5 -7 10 -4 6 3 10 8 10 11 0 2 -4 4 -10 4 -5 0 -10
-5 -10 -11z"/>
<path d="M4370 216 c0 -2 7 -6 15 -10 8 -3 15 -1 15 4 0 6 -7 10 -15 10 -8 0
-15 -2 -15 -4z"/>
<path d="M4920 158 c0 -26 4 -38 9 -33 17 18 17 75 1 75 -5 0 -10 -19 -10 -42z"/>
<path d="M4794 174 c3 -9 6 -22 6 -30 0 -8 16 -32 36 -54 43 -47 83 -54 108
-18 26 37 20 55 -9 28 -23 -22 -25 -22 -50 -6 -14 9 -36 34 -50 56 -25 39 -53
56 -41 24z"/>
<path d="M6598 163 c-25 -4 -42 -33 -19 -33 19 0 71 27 64 33 -3 4 -9 6 -12 6
-3 -1 -18 -4 -33 -6z"/>
<path d="M5360 142 c0 -6 6 -12 14 -15 15 -6 16 -53 2 -75 -5 -8 -4 -18 3 -25
9 -9 13 -6 17 10 3 12 15 23 26 26 13 4 18 1 15 -8 -4 -9 1 -11 14 -8 23 6 26
23 4 23 -9 0 -19 10 -24 23 -9 23 -71 66 -71 49z"/>
<path d="M5115 130 c3 -5 10 -10 16 -10 5 0 9 5 9 10 0 6 -7 10 -16 10 -8 0
-12 -4 -9 -10z"/>
<path d="M5130 91 c0 -10 8 -28 18 -40 18 -23 106 -51 160 -51 33 0 44 16 17
26 -9 4 -22 18 -30 33 -8 14 -14 20 -15 14 0 -18 -39 -16 -46 2 -4 10 -13 13
-26 9 -10 -3 -30 1 -43 10 -31 20 -35 20 -35 -3z"/>
<path d="M6467 81 c4 -15 -3 -19 -35 -25 -22 -3 -48 -3 -56 0 -9 3 -16 1 -16
-4 0 -15 36 -25 63 -17 20 6 21 5 5 -8 -26 -21 -22 -27 17 -27 27 0 33 3 28
16 -3 9 0 19 6 23 13 8 5 61 -9 61 -5 0 -6 -8 -3 -19z"/>
<path d="M5250 79 c0 -5 5 -7 10 -4 6 3 10 8 10 11 0 2 -4 4 -10 4 -5 0 -10
-5 -10 -11z"/>
<path d="M5470 86 c0 -2 7 -6 15 -10 8 -3 15 -1 15 4 0 6 -7 10 -15 10 -8 0
-15 -2 -15 -4z"/>
<path d="M3560 42 c0 -21 19 -42 38 -42 10 0 9 7 -5 30 -20 34 -33 39 -33 12z"/>
<path d="M6767 34 c-11 -11 20 -34 45 -33 l23 0 -25 12 c-14 6 -28 15 -31 19
-3 5 -8 5 -12 2z"/>
<path d="M6490 20 c0 -5 4 -10 9 -10 5 0 18 -3 28 -7 17 -6 17 -6 1 10 -18 19
-38 22 -38 7z"/>
<path d="M6620 10 c0 -5 5 -10 10 -10 6 0 10 5 10 10 0 6 -4 10 -10 10 -5 0
-10 -4 -10 -10z"/>
</g>
</svg>
